<mxfile host="app.diagrams.net" modified="2024-03-03T21:29:12.505Z" agent="Mozilla/5.0 (Macintosh; Intel Mac OS X 10.15; rv:123.0) Gecko/20100101 Firefox/123.0" etag="uYcxtdqBDrpJ4y3hEX_X" version="24.0.0" type="github">
  <diagram name="Page-1" id="PVxg-8GhLV9PTdpmZ5OZ">
    <mxGraphModel dx="7690" dy="4120" grid="1" gridSize="10" guides="1" tooltips="1" connect="1" arrows="1" fold="1" page="1" pageScale="1" pageWidth="850" pageHeight="1100" math="0" shadow="0">
      <root>
        <mxCell id="0" />
        <mxCell id="1" parent="0" />
        <mxCell id="eIFraDozomn_EEBno7Bz-45" style="edgeStyle=none;rounded=0;orthogonalLoop=1;jettySize=auto;html=1;exitX=1;exitY=0.5;exitDx=0;exitDy=0;strokeColor=default;align=center;verticalAlign=middle;fontFamily=Helvetica;fontSize=11;fontColor=default;labelBackgroundColor=default;endArrow=none;" parent="1" source="eIFraDozomn_EEBno7Bz-1" target="eIFraDozomn_EEBno7Bz-2" edge="1">
          <mxGeometry relative="1" as="geometry" />
        </mxCell>
        <mxCell id="eIFraDozomn_EEBno7Bz-99" value="" style="edgeStyle=none;rounded=0;orthogonalLoop=1;jettySize=auto;html=1;strokeColor=default;align=center;verticalAlign=middle;fontFamily=Helvetica;fontSize=11;fontColor=default;labelBackgroundColor=default;endArrow=none;" parent="1" source="eIFraDozomn_EEBno7Bz-1" target="eIFraDozomn_EEBno7Bz-98" edge="1">
          <mxGeometry relative="1" as="geometry" />
        </mxCell>
        <mxCell id="eIFraDozomn_EEBno7Bz-100" value="" style="edgeStyle=none;rounded=0;orthogonalLoop=1;jettySize=auto;html=1;strokeColor=default;align=center;verticalAlign=middle;fontFamily=Helvetica;fontSize=11;fontColor=default;labelBackgroundColor=default;endArrow=none;" parent="1" source="eIFraDozomn_EEBno7Bz-1" target="eIFraDozomn_EEBno7Bz-97" edge="1">
          <mxGeometry relative="1" as="geometry" />
        </mxCell>
        <mxCell id="eIFraDozomn_EEBno7Bz-101" value="" style="edgeStyle=none;rounded=0;orthogonalLoop=1;jettySize=auto;html=1;strokeColor=default;align=center;verticalAlign=middle;fontFamily=Helvetica;fontSize=11;fontColor=default;labelBackgroundColor=default;endArrow=none;" parent="1" source="eIFraDozomn_EEBno7Bz-1" target="eIFraDozomn_EEBno7Bz-97" edge="1">
          <mxGeometry relative="1" as="geometry" />
        </mxCell>
        <mxCell id="eIFraDozomn_EEBno7Bz-103" style="edgeStyle=none;rounded=0;orthogonalLoop=1;jettySize=auto;html=1;exitX=0.5;exitY=0;exitDx=0;exitDy=0;entryX=0;entryY=1;entryDx=0;entryDy=0;strokeColor=default;align=center;verticalAlign=middle;fontFamily=Helvetica;fontSize=11;fontColor=default;labelBackgroundColor=default;endArrow=none;" parent="1" source="eIFraDozomn_EEBno7Bz-1" target="eIFraDozomn_EEBno7Bz-94" edge="1">
          <mxGeometry relative="1" as="geometry" />
        </mxCell>
        <mxCell id="eIFraDozomn_EEBno7Bz-1" value="&lt;span data-lucid-content=&quot;{&amp;quot;t&amp;quot;:&amp;quot;A. Languages\nID: A unique identifier for each language.\nName: The name of the language.\nNumberOfNativeSpeakers: The number of native speakers worldwide.\nB. Courses\nID: A unique identifier for each course.\nName: The name of the course.\nStartDate: The starting date of the course.\nDifficultyLevel: The level of difficulty of the course.\nLanguageID: A foreign key linking to the Languages table to indicate which language the course covers.\nC. Subscribers\nID: A unique identifier for each subscriber.\nName: The name of the subscriber.\nUsername: A unique username for the subscriber.\nEmail: A unique email for the subscriber.\nLastLoginDate (for learners): The last date the subscriber logged in.\nExperiencePoints (for learners): The number of experience points the learner has collected.\nPhoneNumber (for teachers): A unique phone number for the teacher.\nOfficeHours (for teachers): The office hours of the teacher.\nBank (for teachers): Bank identifier.\nLedger (for teachers): Ledger number.\nAccountNumber (for teachers): Account number.\nD. Teacher-Course Relationship\nThis can be implemented through a junction table if teachers can teach multiple courses and each course is taught by a single teacher:\nTeacherID: Link to the Subscribers table where the subscriber is a teacher.\nCourseID: Link to the Courses table.\nE. Registrations &amp;amp; Reviews\nLearnerID: Link to the Subscribers table where the subscriber is a learner.\nCourseID: Link to the Courses table for registrations.\nTeacherID: Link to the Subscribers table where the subscriber is a teacher, for reviews.\nStars: The number of stars given by the learner in the review.\nF. Milestones\nID: A unique identifier for each milestone.\nCourseID: A foreign key linking to the Courses table.\nCredits: The number of credits for the milestone.\nG. Assignments &amp;amp; Exams (types of Milestones)\nMilestoneID: A unique identifier linking back to the Milestones table.\nDueDate (for Assignments): The due date for the assignment.\nExamDate, Duration (for Exams): The date and duration of the exam.\nH. Exam Questions\nExamID: A link to the Exams (a subset of Milestones).\nQuestionNumber: The number of the question in the exam.\nText: The text of the question.\nWeight: The weight of the question.\nI. Squads &amp;amp; Follows\nSquadID: A unique identifier for each squad.\nName: The name of the squad.\nMeetingAddress: The meeting point address of the squad.\nLanguageID: A foreign key linking to the Languages table (optional).\nFollowerID, FollowingID: Links to the Subscribers table to represent followers.\nJ. Sponsorships (Sponsees)\nSponseeID: A unique identifier for each sponsee (could be a LearnerID or SquadID).\nTeacherID: The ID of the teacher nominating the sponsee.\nGrantAmount: The amount of grant received.\nYear: The year of the nomination to ensure uniqueness annually.&amp;quot;,&amp;quot;m&amp;quot;:[{&amp;quot;s&amp;quot;:0,&amp;quot;n&amp;quot;:&amp;quot;s&amp;quot;,&amp;quot;v&amp;quot;:20.28,&amp;quot;e&amp;quot;:12},{&amp;quot;s&amp;quot;:0,&amp;quot;n&amp;quot;:&amp;quot;b&amp;quot;,&amp;quot;v&amp;quot;:true,&amp;quot;e&amp;quot;:12},{&amp;quot;s&amp;quot;:13,&amp;quot;n&amp;quot;:&amp;quot;b&amp;quot;,&amp;quot;v&amp;quot;:true,&amp;quot;e&amp;quot;:15},{&amp;quot;s&amp;quot;:13,&amp;quot;n&amp;quot;:&amp;quot;t&amp;quot;,&amp;quot;v&amp;quot;:&amp;quot;ul&amp;quot;},{&amp;quot;s&amp;quot;:13,&amp;quot;n&amp;quot;:&amp;quot;l&amp;quot;,&amp;quot;v&amp;quot;:&amp;quot;auto&amp;quot;},{&amp;quot;s&amp;quot;:13,&amp;quot;n&amp;quot;:&amp;quot;il&amp;quot;,&amp;quot;v&amp;quot;:17.333333333333336},{&amp;quot;s&amp;quot;:13,&amp;quot;n&amp;quot;:&amp;quot;fl&amp;quot;,&amp;quot;v&amp;quot;:17.333333333333336},{&amp;quot;s&amp;quot;:13,&amp;quot;n&amp;quot;:&amp;quot;a&amp;quot;,&amp;quot;v&amp;quot;:&amp;quot;left&amp;quot;},{&amp;quot;s&amp;quot;:56,&amp;quot;n&amp;quot;:&amp;quot;b&amp;quot;,&amp;quot;v&amp;quot;:true,&amp;quot;e&amp;quot;:60},{&amp;quot;s&amp;quot;:56,&amp;quot;n&amp;quot;:&amp;quot;t&amp;quot;,&amp;quot;v&amp;quot;:&amp;quot;ul&amp;quot;},{&amp;quot;s&amp;quot;:56,&amp;quot;n&amp;quot;:&amp;quot;l&amp;quot;,&amp;quot;v&amp;quot;:&amp;quot;auto&amp;quot;},{&amp;quot;s&amp;quot;:56,&amp;quot;n&amp;quot;:&amp;quot;il&amp;quot;,&amp;quot;v&amp;quot;:17.333333333333336},{&amp;quot;s&amp;quot;:56,&amp;quot;n&amp;quot;:&amp;quot;fl&amp;quot;,&amp;quot;v&amp;quot;:17.333333333333336},{&amp;quot;s&amp;quot;:56,&amp;quot;n&amp;quot;:&amp;quot;a&amp;quot;,&amp;quot;v&amp;quot;:&amp;quot;left&amp;quot;},{&amp;quot;s&amp;quot;:88,&amp;quot;n&amp;quot;:&amp;quot;b&amp;quot;,&amp;quot;v&amp;quot;:true,&amp;quot;e&amp;quot;:110},{&amp;quot;s&amp;quot;:88,&amp;quot;n&amp;quot;:&amp;quot;t&amp;quot;,&amp;quot;v&amp;quot;:&amp;quot;ul&amp;quot;},{&amp;quot;s&amp;quot;:88,&amp;quot;n&amp;quot;:&amp;quot;l&amp;quot;,&amp;quot;v&amp;quot;:&amp;quot;auto&amp;quot;},{&amp;quot;s&amp;quot;:88,&amp;quot;n&amp;quot;:&amp;quot;il&amp;quot;,&amp;quot;v&amp;quot;:17.333333333333336},{&amp;quot;s&amp;quot;:88,&amp;quot;n&amp;quot;:&amp;quot;fl&amp;quot;,&amp;quot;v&amp;quot;:17.333333333333336},{&amp;quot;s&amp;quot;:88,&amp;quot;n&amp;quot;:&amp;quot;a&amp;quot;,&amp;quot;v&amp;quot;:&amp;quot;left&amp;quot;},{&amp;quot;s&amp;quot;:12,&amp;quot;n&amp;quot;:&amp;quot;s&amp;quot;,&amp;quot;v&amp;quot;:17.333333333333336,&amp;quot;e&amp;quot;:153},{&amp;quot;s&amp;quot;:153,&amp;quot;n&amp;quot;:&amp;quot;s&amp;quot;,&amp;quot;v&amp;quot;:20.28,&amp;quot;e&amp;quot;:163},{&amp;quot;s&amp;quot;:153,&amp;quot;n&amp;quot;:&amp;quot;b&amp;quot;,&amp;quot;v&amp;quot;:true,&amp;quot;e&amp;quot;:163},{&amp;quot;s&amp;quot;:164,&amp;quot;n&amp;quot;:&amp;quot;b&amp;quot;,&amp;quot;v&amp;quot;:true,&amp;quot;e&amp;quot;:166},{&amp;quot;s&amp;quot;:164,&amp;quot;n&amp;quot;:&amp;quot;t&amp;quot;,&amp;quot;v&amp;quot;:&amp;quot;ul&amp;quot;},{&amp;quot;s&amp;quot;:164,&amp;quot;n&amp;quot;:&amp;quot;l&amp;quot;,&amp;quot;v&amp;quot;:&amp;quot;auto&amp;quot;},{&amp;quot;s&amp;quot;:164,&amp;quot;n&amp;quot;:&amp;quot;il&amp;quot;,&amp;quot;v&amp;quot;:17.333333333333336},{&amp;quot;s&amp;quot;:164,&amp;quot;n&amp;quot;:&amp;quot;fl&amp;quot;,&amp;quot;v&amp;quot;:17.333333333333336},{&amp;quot;s&amp;quot;:164,&amp;quot;n&amp;quot;:&amp;quot;a&amp;quot;,&amp;quot;v&amp;quot;:&amp;quot;left&amp;quot;},{&amp;quot;s&amp;quot;:205,&amp;quot;n&amp;quot;:&amp;quot;b&amp;quot;,&amp;quot;v&amp;quot;:true,&amp;quot;e&amp;quot;:209},{&amp;quot;s&amp;quot;:205,&amp;quot;n&amp;quot;:&amp;quot;t&amp;quot;,&amp;quot;v&amp;quot;:&amp;quot;ul&amp;quot;},{&amp;quot;s&amp;quot;:205,&amp;quot;n&amp;quot;:&amp;quot;l&amp;quot;,&amp;quot;v&amp;quot;:&amp;quot;auto&amp;quot;},{&amp;quot;s&amp;quot;:205,&amp;quot;n&amp;quot;:&amp;quot;il&amp;quot;,&amp;quot;v&amp;quot;:17.333333333333336},{&amp;quot;s&amp;quot;:205,&amp;quot;n&amp;quot;:&amp;quot;fl&amp;quot;,&amp;quot;v&amp;quot;:17.333333333333336},{&amp;quot;s&amp;quot;:205,&amp;quot;n&amp;quot;:&amp;quot;a&amp;quot;,&amp;quot;v&amp;quot;:&amp;quot;left&amp;quot;},{&amp;quot;s&amp;quot;:235,&amp;quot;n&amp;quot;:&amp;quot;b&amp;quot;,&amp;quot;v&amp;quot;:true,&amp;quot;e&amp;quot;:244},{&amp;quot;s&amp;quot;:235,&amp;quot;n&amp;quot;:&amp;quot;t&amp;quot;,&amp;quot;v&amp;quot;:&amp;quot;ul&amp;quot;},{&amp;quot;s&amp;quot;:235,&amp;quot;n&amp;quot;:&amp;quot;l&amp;quot;,&amp;quot;v&amp;quot;:&amp;quot;auto&amp;quot;},{&amp;quot;s&amp;quot;:235,&amp;quot;n&amp;quot;:&amp;quot;il&amp;quot;,&amp;quot;v&amp;quot;:17.333333333333336},{&amp;quot;s&amp;quot;:235,&amp;quot;n&amp;quot;:&amp;quot;fl&amp;quot;,&amp;quot;v&amp;quot;:17.333333333333336},{&amp;quot;s&amp;quot;:235,&amp;quot;n&amp;quot;:&amp;quot;a&amp;quot;,&amp;quot;v&amp;quot;:&amp;quot;left&amp;quot;},{&amp;quot;s&amp;quot;:279,&amp;quot;n&amp;quot;:&amp;quot;b&amp;quot;,&amp;quot;v&amp;quot;:true,&amp;quot;e&amp;quot;:294},{&amp;quot;s&amp;quot;:279,&amp;quot;n&amp;quot;:&amp;quot;t&amp;quot;,&amp;quot;v&amp;quot;:&amp;quot;ul&amp;quot;},{&amp;quot;s&amp;quot;:279,&amp;quot;n&amp;quot;:&amp;quot;l&amp;quot;,&amp;quot;v&amp;quot;:&amp;quot;auto&amp;quot;},{&amp;quot;s&amp;quot;:279,&amp;quot;n&amp;quot;:&amp;quot;il&amp;quot;,&amp;quot;v&amp;quot;:17.333333333333336},{&amp;quot;s&amp;quot;:279,&amp;quot;n&amp;quot;:&amp;quot;fl&amp;quot;,&amp;quot;v&amp;quot;:17.333333333333336},{&amp;quot;s&amp;quot;:279,&amp;quot;n&amp;quot;:&amp;quot;a&amp;quot;,&amp;quot;v&amp;quot;:&amp;quot;left&amp;quot;},{&amp;quot;s&amp;quot;:335,&amp;quot;n&amp;quot;:&amp;quot;b&amp;quot;,&amp;quot;v&amp;quot;:true,&amp;quot;e&amp;quot;:345},{&amp;quot;s&amp;quot;:335,&amp;quot;n&amp;quot;:&amp;quot;t&amp;quot;,&amp;quot;v&amp;quot;:&amp;quot;ul&amp;quot;},{&amp;quot;s&amp;quot;:335,&amp;quot;n&amp;quot;:&amp;quot;l&amp;quot;,&amp;quot;v&amp;quot;:&amp;quot;auto&amp;quot;},{&amp;quot;s&amp;quot;:335,&amp;quot;n&amp;quot;:&amp;quot;il&amp;quot;,&amp;quot;v&amp;quot;:17.333333333333336},{&amp;quot;s&amp;quot;:335,&amp;quot;n&amp;quot;:&amp;quot;fl&amp;quot;,&amp;quot;v&amp;quot;:17.333333333333336},{&amp;quot;s&amp;quot;:335,&amp;quot;n&amp;quot;:&amp;quot;a&amp;quot;,&amp;quot;v&amp;quot;:&amp;quot;left&amp;quot;},{&amp;quot;s&amp;quot;:163,&amp;quot;n&amp;quot;:&amp;quot;s&amp;quot;,&amp;quot;v&amp;quot;:17.333333333333336,&amp;quot;e&amp;quot;:438},{&amp;quot;s&amp;quot;:438,&amp;quot;n&amp;quot;:&amp;quot;s&amp;quot;,&amp;quot;v&amp;quot;:20.28,&amp;quot;e&amp;quot;:452},{&amp;quot;s&amp;quot;:438,&amp;quot;n&amp;quot;:&amp;quot;b&amp;quot;,&amp;quot;v&amp;quot;:true,&amp;quot;e&amp;quot;:452},{&amp;quot;s&amp;quot;:453,&amp;quot;n&amp;quot;:&amp;quot;b&amp;quot;,&amp;quot;v&amp;quot;:true,&amp;quot;e&amp;quot;:455},{&amp;quot;s&amp;quot;:453,&amp;quot;n&amp;quot;:&amp;quot;t&amp;quot;,&amp;quot;v&amp;quot;:&amp;quot;ul&amp;quot;},{&amp;quot;s&amp;quot;:453,&amp;quot;n&amp;quot;:&amp;quot;l&amp;quot;,&amp;quot;v&amp;quot;:&amp;quot;auto&amp;quot;},{&amp;quot;s&amp;quot;:453,&amp;quot;n&amp;quot;:&amp;quot;il&amp;quot;,&amp;quot;v&amp;quot;:17.333333333333336},{&amp;quot;s&amp;quot;:453,&amp;quot;n&amp;quot;:&amp;quot;fl&amp;quot;,&amp;quot;v&amp;quot;:17.333333333333336},{&amp;quot;s&amp;quot;:453,&amp;quot;n&amp;quot;:&amp;quot;a&amp;quot;,&amp;quot;v&amp;quot;:&amp;quot;left&amp;quot;},{&amp;quot;s&amp;quot;:498,&amp;quot;n&amp;quot;:&amp;quot;b&amp;quot;,&amp;quot;v&amp;quot;:true,&amp;quot;e&amp;quot;:502},{&amp;quot;s&amp;quot;:498,&amp;quot;n&amp;quot;:&amp;quot;t&amp;quot;,&amp;quot;v&amp;quot;:&amp;quot;ul&amp;quot;},{&amp;quot;s&amp;quot;:498,&amp;quot;n&amp;quot;:&amp;quot;l&amp;quot;,&amp;quot;v&amp;quot;:&amp;quot;auto&amp;quot;},{&amp;quot;s&amp;quot;:498,&amp;quot;n&amp;quot;:&amp;quot;il&amp;quot;,&amp;quot;v&amp;quot;:17.333333333333336},{&amp;quot;s&amp;quot;:498,&amp;quot;n&amp;quot;:&amp;quot;fl&amp;quot;,&amp;quot;v&amp;quot;:17.333333333333336},{&amp;quot;s&amp;quot;:498,&amp;quot;n&amp;quot;:&amp;quot;a&amp;quot;,&amp;quot;v&amp;quot;:&amp;quot;left&amp;quot;},{&amp;quot;s&amp;quot;:532,&amp;quot;n&amp;quot;:&amp;quot;b&amp;quot;,&amp;quot;v&amp;quot;:true,&amp;quot;e&amp;quot;:540},{&amp;quot;s&amp;quot;:532,&amp;quot;n&amp;quot;:&amp;quot;t&amp;quot;,&amp;quot;v&amp;quot;:&amp;quot;ul&amp;quot;},{&amp;quot;s&amp;quot;:532,&amp;quot;n&amp;quot;:&amp;quot;l&amp;quot;,&amp;quot;v&amp;quot;:&amp;quot;auto&amp;quot;},{&amp;quot;s&amp;quot;:532,&amp;quot;n&amp;quot;:&amp;quot;il&amp;quot;,&amp;quot;v&amp;quot;:17.333333333333336},{&amp;quot;s&amp;quot;:532,&amp;quot;n&amp;quot;:&amp;quot;fl&amp;quot;,&amp;quot;v&amp;quot;:17.333333333333336},{&amp;quot;s&amp;quot;:532,&amp;quot;n&amp;quot;:&amp;quot;a&amp;quot;,&amp;quot;v&amp;quot;:&amp;quot;left&amp;quot;},{&amp;quot;s&amp;quot;:580,&amp;quot;n&amp;quot;:&amp;quot;b&amp;quot;,&amp;quot;v&amp;quot;:true,&amp;quot;e&amp;quot;:585},{&amp;quot;s&amp;quot;:580,&amp;quot;n&amp;quot;:&amp;quot;t&amp;quot;,&amp;quot;v&amp;quot;:&amp;quot;ul&amp;quot;},{&amp;quot;s&amp;quot;:580,&amp;quot;n&amp;quot;:&amp;quot;l&amp;quot;,&amp;quot;v&amp;quot;:&amp;quot;auto&amp;quot;},{&amp;quot;s&amp;quot;:580,&amp;quot;n&amp;quot;:&amp;quot;il&amp;quot;,&amp;quot;v&amp;quot;:17.333333333333336},{&amp;quot;s&amp;quot;:580,&amp;quot;n&amp;quot;:&amp;quot;fl&amp;quot;,&amp;quot;v&amp;quot;:17.333333333333336},{&amp;quot;s&amp;quot;:580,&amp;quot;n&amp;quot;:&amp;quot;a&amp;quot;,&amp;quot;v&amp;quot;:&amp;quot;left&amp;quot;},{&amp;quot;s&amp;quot;:622,&amp;quot;n&amp;quot;:&amp;quot;b&amp;quot;,&amp;quot;v&amp;quot;:true,&amp;quot;e&amp;quot;:635},{&amp;quot;s&amp;quot;:622,&amp;quot;n&amp;quot;:&amp;quot;t&amp;quot;,&amp;quot;v&amp;quot;:&amp;quot;ul&amp;quot;},{&amp;quot;s&amp;quot;:622,&amp;quot;n&amp;quot;:&amp;quot;l&amp;quot;,&amp;quot;v&amp;quot;:&amp;quot;auto&amp;quot;},{&amp;quot;s&amp;quot;:622,&amp;quot;n&amp;quot;:&amp;quot;il&amp;quot;,&amp;quot;v&amp;quot;:17.333333333333336},{&amp;quot;s&amp;quot;:622,&amp;quot;n&amp;quot;:&amp;quot;fl&amp;quot;,&amp;quot;v&amp;quot;:17.333333333333336},{&amp;quot;s&amp;quot;:622,&amp;quot;n&amp;quot;:&amp;quot;a&amp;quot;,&amp;quot;v&amp;quot;:&amp;quot;left&amp;quot;},{&amp;quot;s&amp;quot;:692,&amp;quot;n&amp;quot;:&amp;quot;b&amp;quot;,&amp;quot;v&amp;quot;:true,&amp;quot;e&amp;quot;:708},{&amp;quot;s&amp;quot;:692,&amp;quot;n&amp;quot;:&amp;quot;t&amp;quot;,&amp;quot;v&amp;quot;:&amp;quot;ul&amp;quot;},{&amp;quot;s&amp;quot;:692,&amp;quot;n&amp;quot;:&amp;quot;l&amp;quot;,&amp;quot;v&amp;quot;:&amp;quot;auto&amp;quot;},{&amp;quot;s&amp;quot;:692,&amp;quot;n&amp;quot;:&amp;quot;il&amp;quot;,&amp;quot;v&amp;quot;:17.333333333333336},{&amp;quot;s&amp;quot;:692,&amp;quot;n&amp;quot;:&amp;quot;fl&amp;quot;,&amp;quot;v&amp;quot;:17.333333333333336},{&amp;quot;s&amp;quot;:692,&amp;quot;n&amp;quot;:&amp;quot;a&amp;quot;,&amp;quot;v&amp;quot;:&amp;quot;left&amp;quot;},{&amp;quot;s&amp;quot;:784,&amp;quot;n&amp;quot;:&amp;quot;b&amp;quot;,&amp;quot;v&amp;quot;:true,&amp;quot;e&amp;quot;:795},{&amp;quot;s&amp;quot;:784,&amp;quot;n&amp;quot;:&amp;quot;t&amp;quot;,&amp;quot;v&amp;quot;:&amp;quot;ul&amp;quot;},{&amp;quot;s&amp;quot;:784,&amp;quot;n&amp;quot;:&amp;quot;l&amp;quot;,&amp;quot;v&amp;quot;:&amp;quot;auto&amp;quot;},{&amp;quot;s&amp;quot;:784,&amp;quot;n&amp;quot;:&amp;quot;il&amp;quot;,&amp;quot;v&amp;quot;:17.333333333333336},{&amp;quot;s&amp;quot;:784,&amp;quot;n&amp;quot;:&amp;quot;fl&amp;quot;,&amp;quot;v&amp;quot;:17.333333333333336},{&amp;quot;s&amp;quot;:784,&amp;quot;n&amp;quot;:&amp;quot;a&amp;quot;,&amp;quot;v&amp;quot;:&amp;quot;left&amp;quot;},{&amp;quot;s&amp;quot;:851,&amp;quot;n&amp;quot;:&amp;quot;b&amp;quot;,&amp;quot;v&amp;quot;:true,&amp;quot;e&amp;quot;:862},{&amp;quot;s&amp;quot;:851,&amp;quot;n&amp;quot;:&amp;quot;t&amp;quot;,&amp;quot;v&amp;quot;:&amp;quot;ul&amp;quot;},{&amp;quot;s&amp;quot;:851,&amp;quot;n&amp;quot;:&amp;quot;l&amp;quot;,&amp;quot;v&amp;quot;:&amp;quot;auto&amp;quot;},{&amp;quot;s&amp;quot;:851,&amp;quot;n&amp;quot;:&amp;quot;il&amp;quot;,&amp;quot;v&amp;quot;:17.333333333333336},{&amp;quot;s&amp;quot;:851,&amp;quot;n&amp;quot;:&amp;quot;fl&amp;quot;,&amp;quot;v&amp;quot;:17.333333333333336},{&amp;quot;s&amp;quot;:851,&amp;quot;n&amp;quot;:&amp;quot;a&amp;quot;,&amp;quot;v&amp;quot;:&amp;quot;left&amp;quot;},{&amp;quot;s&amp;quot;:912,&amp;quot;n&amp;quot;:&amp;quot;b&amp;quot;,&amp;quot;v&amp;quot;:true,&amp;quot;e&amp;quot;:916},{&amp;quot;s&amp;quot;:912,&amp;quot;n&amp;quot;:&amp;quot;t&amp;quot;,&amp;quot;v&amp;quot;:&amp;quot;ul&amp;quot;},{&amp;quot;s&amp;quot;:912,&amp;quot;n&amp;quot;:&amp;quot;l&amp;quot;,&amp;quot;v&amp;quot;:&amp;quot;auto&amp;quot;},{&amp;quot;s&amp;quot;:912,&amp;quot;n&amp;quot;:&amp;quot;il&amp;quot;,&amp;quot;v&amp;quot;:17.333333333333336},{&amp;quot;s&amp;quot;:912,&amp;quot;n&amp;quot;:&amp;quot;fl&amp;quot;,&amp;quot;v&amp;quot;:17.333333333333336},{&amp;quot;s&amp;quot;:912,&amp;quot;n&amp;quot;:&amp;quot;a&amp;quot;,&amp;quot;v&amp;quot;:&amp;quot;left&amp;quot;},{&amp;quot;s&amp;quot;:950,&amp;quot;n&amp;quot;:&amp;quot;b&amp;quot;,&amp;quot;v&amp;quot;:true,&amp;quot;e&amp;quot;:956},{&amp;quot;s&amp;quot;:950,&amp;quot;n&amp;quot;:&amp;quot;t&amp;quot;,&amp;quot;v&amp;quot;:&amp;quot;ul&amp;quot;},{&amp;quot;s&amp;quot;:950,&amp;quot;n&amp;quot;:&amp;quot;l&amp;quot;,&amp;quot;v&amp;quot;:&amp;quot;auto&amp;quot;},{&amp;quot;s&amp;quot;:950,&amp;quot;n&amp;quot;:&amp;quot;il&amp;quot;,&amp;quot;v&amp;quot;:17.333333333333336},{&amp;quot;s&amp;quot;:950,&amp;quot;n&amp;quot;:&amp;quot;fl&amp;quot;,&amp;quot;v&amp;quot;:17.333333333333336},{&amp;quot;s&amp;quot;:950,&amp;quot;n&amp;quot;:&amp;quot;a&amp;quot;,&amp;quot;v&amp;quot;:&amp;quot;left&amp;quot;},{&amp;quot;s&amp;quot;:988,&amp;quot;n&amp;quot;:&amp;quot;b&amp;quot;,&amp;quot;v&amp;quot;:true,&amp;quot;e&amp;quot;:1001},{&amp;quot;s&amp;quot;:988,&amp;quot;n&amp;quot;:&amp;quot;t&amp;quot;,&amp;quot;v&amp;quot;:&amp;quot;ul&amp;quot;},{&amp;quot;s&amp;quot;:988,&amp;quot;n&amp;quot;:&amp;quot;l&amp;quot;,&amp;quot;v&amp;quot;:&amp;quot;auto&amp;quot;},{&amp;quot;s&amp;quot;:988,&amp;quot;n&amp;quot;:&amp;quot;il&amp;quot;,&amp;quot;v&amp;quot;:17.333333333333336},{&amp;quot;s&amp;quot;:988,&amp;quot;n&amp;quot;:&amp;quot;fl&amp;quot;,&amp;quot;v&amp;quot;:17.333333333333336},{&amp;quot;s&amp;quot;:988,&amp;quot;n&amp;quot;:&amp;quot;a&amp;quot;,&amp;quot;v&amp;quot;:&amp;quot;left&amp;quot;},{&amp;quot;s&amp;quot;:452,&amp;quot;n&amp;quot;:&amp;quot;s&amp;quot;,&amp;quot;v&amp;quot;:17.333333333333336,&amp;quot;e&amp;quot;:1034},{&amp;quot;s&amp;quot;:1034,&amp;quot;n&amp;quot;:&amp;quot;s&amp;quot;,&amp;quot;v&amp;quot;:20.28,&amp;quot;e&amp;quot;:1064},{&amp;quot;s&amp;quot;:1034,&amp;quot;n&amp;quot;:&amp;quot;b&amp;quot;,&amp;quot;v&amp;quot;:true,&amp;quot;e&amp;quot;:1064},{&amp;quot;s&amp;quot;:1200,&amp;quot;n&amp;quot;:&amp;quot;b&amp;quot;,&amp;quot;v&amp;quot;:true,&amp;quot;e&amp;quot;:1209},{&amp;quot;s&amp;quot;:1200,&amp;quot;n&amp;quot;:&amp;quot;t&amp;quot;,&amp;quot;v&amp;quot;:&amp;quot;ul&amp;quot;},{&amp;quot;s&amp;quot;:1200,&amp;quot;n&amp;quot;:&amp;quot;l&amp;quot;,&amp;quot;v&amp;quot;:&amp;quot;auto&amp;quot;},{&amp;quot;s&amp;quot;:1200,&amp;quot;n&amp;quot;:&amp;quot;il&amp;quot;,&amp;quot;v&amp;quot;:17.333333333333336},{&amp;quot;s&amp;quot;:1200,&amp;quot;n&amp;quot;:&amp;quot;fl&amp;quot;,&amp;quot;v&amp;quot;:17.333333333333336},{&amp;quot;s&amp;quot;:1200,&amp;quot;n&amp;quot;:&amp;quot;a&amp;quot;,&amp;quot;v&amp;quot;:&amp;quot;left&amp;quot;},{&amp;quot;s&amp;quot;:1276,&amp;quot;n&amp;quot;:&amp;quot;b&amp;quot;,&amp;quot;v&amp;quot;:true,&amp;quot;e&amp;quot;:1284},{&amp;quot;s&amp;quot;:1276,&amp;quot;n&amp;quot;:&amp;quot;t&amp;quot;,&amp;quot;v&amp;quot;:&amp;quot;ul&amp;quot;},{&amp;quot;s&amp;quot;:1276,&amp;quot;n&amp;quot;:&amp;quot;l&amp;quot;,&amp;quot;v&amp;quot;:&amp;quot;auto&amp;quot;},{&amp;quot;s&amp;quot;:1276,&amp;quot;n&amp;quot;:&amp;quot;il&amp;quot;,&amp;quot;v&amp;quot;:17.333333333333336},{&amp;quot;s&amp;quot;:1276,&amp;quot;n&amp;quot;:&amp;quot;fl&amp;quot;,&amp;quot;v&amp;quot;:17.333333333333336},{&amp;quot;s&amp;quot;:1276,&amp;quot;n&amp;quot;:&amp;quot;a&amp;quot;,&amp;quot;v&amp;quot;:&amp;quot;left&amp;quot;},{&amp;quot;s&amp;quot;:1064,&amp;quot;n&amp;quot;:&amp;quot;s&amp;quot;,&amp;quot;v&amp;quot;:17.333333333333336,&amp;quot;e&amp;quot;:1313},{&amp;quot;s&amp;quot;:1313,&amp;quot;n&amp;quot;:&amp;quot;s&amp;quot;,&amp;quot;v&amp;quot;:20.28,&amp;quot;e&amp;quot;:1339},{&amp;quot;s&amp;quot;:1313,&amp;quot;n&amp;quot;:&amp;quot;b&amp;quot;,&amp;quot;v&amp;quot;:true,&amp;quot;e&amp;quot;:1339},{&amp;quot;s&amp;quot;:1340,&amp;quot;n&amp;quot;:&amp;quot;b&amp;quot;,&amp;quot;v&amp;quot;:true,&amp;quot;e&amp;quot;:1349},{&amp;quot;s&amp;quot;:1340,&amp;quot;n&amp;quot;:&amp;quot;t&amp;quot;,&amp;quot;v&amp;quot;:&amp;quot;ul&amp;quot;},{&amp;quot;s&amp;quot;:1340,&amp;quot;n&amp;quot;:&amp;quot;l&amp;quot;,&amp;quot;v&amp;quot;:&amp;quot;auto&amp;quot;},{&amp;quot;s&amp;quot;:1340,&amp;quot;n&amp;quot;:&amp;quot;il&amp;quot;,&amp;quot;v&amp;quot;:17.333333333333336},{&amp;quot;s&amp;quot;:1340,&amp;quot;n&amp;quot;:&amp;quot;fl&amp;quot;,&amp;quot;v&amp;quot;:17.333333333333336},{&amp;quot;s&amp;quot;:1340,&amp;quot;n&amp;quot;:&amp;quot;a&amp;quot;,&amp;quot;v&amp;quot;:&amp;quot;left&amp;quot;},{&amp;quot;s&amp;quot;:1416,&amp;quot;n&amp;quot;:&amp;quot;b&amp;quot;,&amp;quot;v&amp;quot;:true,&amp;quot;e&amp;quot;:1424},{&amp;quot;s&amp;quot;:1416,&amp;quot;n&amp;quot;:&amp;quot;t&amp;quot;,&amp;quot;v&amp;quot;:&amp;quot;ul&amp;quot;},{&amp;quot;s&amp;quot;:1416,&amp;quot;n&amp;quot;:&amp;quot;l&amp;quot;,&amp;quot;v&amp;quot;:&amp;quot;auto&amp;quot;},{&amp;quot;s&amp;quot;:1416,&amp;quot;n&amp;quot;:&amp;quot;il&amp;quot;,&amp;quot;v&amp;quot;:17.333333333333336},{&amp;quot;s&amp;quot;:1416,&amp;quot;n&amp;quot;:&amp;quot;fl&amp;quot;,&amp;quot;v&amp;quot;:17.333333333333336},{&amp;quot;s&amp;quot;:1416,&amp;quot;n&amp;quot;:&amp;quot;a&amp;quot;,&amp;quot;v&amp;quot;:&amp;quot;left&amp;quot;},{&amp;quot;s&amp;quot;:1471,&amp;quot;n&amp;quot;:&amp;quot;b&amp;quot;,&amp;quot;v&amp;quot;:true,&amp;quot;e&amp;quot;:1480},{&amp;quot;s&amp;quot;:1471,&amp;quot;n&amp;quot;:&amp;quot;t&amp;quot;,&amp;quot;v&amp;quot;:&amp;quot;ul&amp;quot;},{&amp;quot;s&amp;quot;:1471,&amp;quot;n&amp;quot;:&amp;quot;l&amp;quot;,&amp;quot;v&amp;quot;:&amp;quot;auto&amp;quot;},{&amp;quot;s&amp;quot;:1471,&amp;quot;n&amp;quot;:&amp;quot;il&amp;quot;,&amp;quot;v&amp;quot;:17.333333333333336},{&amp;quot;s&amp;quot;:1471,&amp;quot;n&amp;quot;:&amp;quot;fl&amp;quot;,&amp;quot;v&amp;quot;:17.333333333333336},{&amp;quot;s&amp;quot;:1471,&amp;quot;n&amp;quot;:&amp;quot;a&amp;quot;,&amp;quot;v&amp;quot;:&amp;quot;left&amp;quot;},{&amp;quot;s&amp;quot;:1560,&amp;quot;n&amp;quot;:&amp;quot;b&amp;quot;,&amp;quot;v&amp;quot;:true,&amp;quot;e&amp;quot;:1565},{&amp;quot;s&amp;quot;:1560,&amp;quot;n&amp;quot;:&amp;quot;t&amp;quot;,&amp;quot;v&amp;quot;:&amp;quot;ul&amp;quot;},{&amp;quot;s&amp;quot;:1560,&amp;quot;n&amp;quot;:&amp;quot;l&amp;quot;,&amp;quot;v&amp;quot;:&amp;quot;auto&amp;quot;},{&amp;quot;s&amp;quot;:1560,&amp;quot;n&amp;quot;:&amp;quot;il&amp;quot;,&amp;quot;v&amp;quot;:17.333333333333336},{&amp;quot;s&amp;quot;:1560,&amp;quot;n&amp;quot;:&amp;quot;fl&amp;quot;,&amp;quot;v&amp;quot;:17.333333333333336},{&amp;quot;s&amp;quot;:1560,&amp;quot;n&amp;quot;:&amp;quot;a&amp;quot;,&amp;quot;v&amp;quot;:&amp;quot;left&amp;quot;},{&amp;quot;s&amp;quot;:1339,&amp;quot;n&amp;quot;:&amp;quot;s&amp;quot;,&amp;quot;v&amp;quot;:17.333333333333336,&amp;quot;e&amp;quot;:1623},{&amp;quot;s&amp;quot;:1623,&amp;quot;n&amp;quot;:&amp;quot;s&amp;quot;,&amp;quot;v&amp;quot;:20.28,&amp;quot;e&amp;quot;:1636},{&amp;quot;s&amp;quot;:1623,&amp;quot;n&amp;quot;:&amp;quot;b&amp;quot;,&amp;quot;v&amp;quot;:true,&amp;quot;e&amp;quot;:1636},{&amp;quot;s&amp;quot;:1637,&amp;quot;n&amp;quot;:&amp;quot;b&amp;quot;,&amp;quot;v&amp;quot;:true,&amp;quot;e&amp;quot;:1639},{&amp;quot;s&amp;quot;:1637,&amp;quot;n&amp;quot;:&amp;quot;t&amp;quot;,&amp;quot;v&amp;quot;:&amp;quot;ul&amp;quot;},{&amp;quot;s&amp;quot;:1637,&amp;quot;n&amp;quot;:&amp;quot;l&amp;quot;,&amp;quot;v&amp;quot;:&amp;quot;auto&amp;quot;},{&amp;quot;s&amp;quot;:1637,&amp;quot;n&amp;quot;:&amp;quot;il&amp;quot;,&amp;quot;v&amp;quot;:17.333333333333336},{&amp;quot;s&amp;quot;:1637,&amp;quot;n&amp;quot;:&amp;quot;fl&amp;quot;,&amp;quot;v&amp;quot;:17.333333333333336},{&amp;quot;s&amp;quot;:1637,&amp;quot;n&amp;quot;:&amp;quot;a&amp;quot;,&amp;quot;v&amp;quot;:&amp;quot;left&amp;quot;},{&amp;quot;s&amp;quot;:1681,&amp;quot;n&amp;quot;:&amp;quot;b&amp;quot;,&amp;quot;v&amp;quot;:true,&amp;quot;e&amp;quot;:1689},{&amp;quot;s&amp;quot;:1681,&amp;quot;n&amp;quot;:&amp;quot;t&amp;quot;,&amp;quot;v&amp;quot;:&amp;quot;ul&amp;quot;},{&amp;quot;s&amp;quot;:1681,&amp;quot;n&amp;quot;:&amp;quot;l&amp;quot;,&amp;quot;v&amp;quot;:&amp;quot;auto&amp;quot;},{&amp;quot;s&amp;quot;:1681,&amp;quot;n&amp;quot;:&amp;quot;il&amp;quot;,&amp;quot;v&amp;quot;:17.333333333333336},{&amp;quot;s&amp;quot;:1681,&amp;quot;n&amp;quot;:&amp;quot;fl&amp;quot;,&amp;quot;v&amp;quot;:17.333333333333336},{&amp;quot;s&amp;quot;:1681,&amp;quot;n&amp;quot;:&amp;quot;a&amp;quot;,&amp;quot;v&amp;quot;:&amp;quot;left&amp;quot;},{&amp;quot;s&amp;quot;:1735,&amp;quot;n&amp;quot;:&amp;quot;b&amp;quot;,&amp;quot;v&amp;quot;:true,&amp;quot;e&amp;quot;:1742},{&amp;quot;s&amp;quot;:1735,&amp;quot;n&amp;quot;:&amp;quot;t&amp;quot;,&amp;quot;v&amp;quot;:&amp;quot;ul&amp;quot;},{&amp;quot;s&amp;quot;:1735,&amp;quot;n&amp;quot;:&amp;quot;l&amp;quot;,&amp;quot;v&amp;quot;:&amp;quot;auto&amp;quot;},{&amp;quot;s&amp;quot;:1735,&amp;quot;n&amp;quot;:&amp;quot;il&amp;quot;,&amp;quot;v&amp;quot;:17.333333333333336},{&amp;quot;s&amp;quot;:1735,&amp;quot;n&amp;quot;:&amp;quot;fl&amp;quot;,&amp;quot;v&amp;quot;:17.333333333333336},{&amp;quot;s&amp;quot;:1735,&amp;quot;n&amp;quot;:&amp;quot;a&amp;quot;,&amp;quot;v&amp;quot;:&amp;quot;left&amp;quot;},{&amp;quot;s&amp;quot;:1636,&amp;quot;n&amp;quot;:&amp;quot;s&amp;quot;,&amp;quot;v&amp;quot;:17.333333333333336,&amp;quot;e&amp;quot;:1785},{&amp;quot;s&amp;quot;:1785,&amp;quot;n&amp;quot;:&amp;quot;s&amp;quot;,&amp;quot;v&amp;quot;:20.28,&amp;quot;e&amp;quot;:1829},{&amp;quot;s&amp;quot;:1785,&amp;quot;n&amp;quot;:&amp;quot;b&amp;quot;,&amp;quot;v&amp;quot;:true,&amp;quot;e&amp;quot;:1829},{&amp;quot;s&amp;quot;:1830,&amp;quot;n&amp;quot;:&amp;quot;b&amp;quot;,&amp;quot;v&amp;quot;:true,&amp;quot;e&amp;quot;:1841},{&amp;quot;s&amp;quot;:1830,&amp;quot;n&amp;quot;:&amp;quot;t&amp;quot;,&amp;quot;v&amp;quot;:&amp;quot;ul&amp;quot;},{&amp;quot;s&amp;quot;:1830,&amp;quot;n&amp;quot;:&amp;quot;l&amp;quot;,&amp;quot;v&amp;quot;:&amp;quot;auto&amp;quot;},{&amp;quot;s&amp;quot;:1830,&amp;quot;n&amp;quot;:&amp;quot;il&amp;quot;,&amp;quot;v&amp;quot;:17.333333333333336},{&amp;quot;s&amp;quot;:1830,&amp;quot;n&amp;quot;:&amp;quot;fl&amp;quot;,&amp;quot;v&amp;quot;:17.333333333333336},{&amp;quot;s&amp;quot;:1830,&amp;quot;n&amp;quot;:&amp;quot;a&amp;quot;,&amp;quot;v&amp;quot;:&amp;quot;left&amp;quot;},{&amp;quot;s&amp;quot;:1901,&amp;quot;n&amp;quot;:&amp;quot;b&amp;quot;,&amp;quot;v&amp;quot;:true,&amp;quot;e&amp;quot;:1908},{&amp;quot;s&amp;quot;:1901,&amp;quot;n&amp;quot;:&amp;quot;t&amp;quot;,&amp;quot;v&amp;quot;:&amp;quot;ul&amp;quot;},{&amp;quot;s&amp;quot;:1901,&amp;quot;n&amp;quot;:&amp;quot;l&amp;quot;,&amp;quot;v&amp;quot;:&amp;quot;auto&amp;quot;},{&amp;quot;s&amp;quot;:1901,&amp;quot;n&amp;quot;:&amp;quot;il&amp;quot;,&amp;quot;v&amp;quot;:17.333333333333336},{&amp;quot;s&amp;quot;:1901,&amp;quot;n&amp;quot;:&amp;quot;fl&amp;quot;,&amp;quot;v&amp;quot;:17.333333333333336},{&amp;quot;s&amp;quot;:1901,&amp;quot;n&amp;quot;:&amp;quot;a&amp;quot;,&amp;quot;v&amp;quot;:&amp;quot;left&amp;quot;},{&amp;quot;s&amp;quot;:1961,&amp;quot;n&amp;quot;:&amp;quot;b&amp;quot;,&amp;quot;v&amp;quot;:true,&amp;quot;e&amp;quot;:1969},{&amp;quot;s&amp;quot;:1971,&amp;quot;n&amp;quot;:&amp;quot;b&amp;quot;,&amp;quot;v&amp;quot;:true,&amp;quot;e&amp;quot;:1979},{&amp;quot;s&amp;quot;:1961,&amp;quot;n&amp;quot;:&amp;quot;t&amp;quot;,&amp;quot;v&amp;quot;:&amp;quot;ul&amp;quot;},{&amp;quot;s&amp;quot;:1961,&amp;quot;n&amp;quot;:&amp;quot;l&amp;quot;,&amp;quot;v&amp;quot;:&amp;quot;auto&amp;quot;},{&amp;quot;s&amp;quot;:1961,&amp;quot;n&amp;quot;:&amp;quot;il&amp;quot;,&amp;quot;v&amp;quot;:17.333333333333336},{&amp;quot;s&amp;quot;:1961,&amp;quot;n&amp;quot;:&amp;quot;fl&amp;quot;,&amp;quot;v&amp;quot;:17.333333333333336},{&amp;quot;s&amp;quot;:1961,&amp;quot;n&amp;quot;:&amp;quot;a&amp;quot;,&amp;quot;v&amp;quot;:&amp;quot;left&amp;quot;},{&amp;quot;s&amp;quot;:1829,&amp;quot;n&amp;quot;:&amp;quot;s&amp;quot;,&amp;quot;v&amp;quot;:17.333333333333336,&amp;quot;e&amp;quot;:2028},{&amp;quot;s&amp;quot;:2028,&amp;quot;n&amp;quot;:&amp;quot;s&amp;quot;,&amp;quot;v&amp;quot;:20.28,&amp;quot;e&amp;quot;:2045},{&amp;quot;s&amp;quot;:2028,&amp;quot;n&amp;quot;:&amp;quot;b&amp;quot;,&amp;quot;v&amp;quot;:true,&amp;quot;e&amp;quot;:2045},{&amp;quot;s&amp;quot;:2046,&amp;quot;n&amp;quot;:&amp;quot;b&amp;quot;,&amp;quot;v&amp;quot;:true,&amp;quot;e&amp;quot;:2052},{&amp;quot;s&amp;quot;:2046,&amp;quot;n&amp;quot;:&amp;quot;t&amp;quot;,&amp;quot;v&amp;quot;:&amp;quot;ul&amp;quot;},{&amp;quot;s&amp;quot;:2046,&amp;quot;n&amp;quot;:&amp;quot;l&amp;quot;,&amp;quot;v&amp;quot;:&amp;quot;auto&amp;quot;},{&amp;quot;s&amp;quot;:2046,&amp;quot;n&amp;quot;:&amp;quot;il&amp;quot;,&amp;quot;v&amp;quot;:17.333333333333336},{&amp;quot;s&amp;quot;:2046,&amp;quot;n&amp;quot;:&amp;quot;fl&amp;quot;,&amp;quot;v&amp;quot;:17.333333333333336},{&amp;quot;s&amp;quot;:2046,&amp;quot;n&amp;quot;:&amp;quot;a&amp;quot;,&amp;quot;v&amp;quot;:&amp;quot;left&amp;quot;},{&amp;quot;s&amp;quot;:2100,&amp;quot;n&amp;quot;:&amp;quot;b&amp;quot;,&amp;quot;v&amp;quot;:true,&amp;quot;e&amp;quot;:2114},{&amp;quot;s&amp;quot;:2100,&amp;quot;n&amp;quot;:&amp;quot;t&amp;quot;,&amp;quot;v&amp;quot;:&amp;quot;ul&amp;quot;},{&amp;quot;s&amp;quot;:2100,&amp;quot;n&amp;quot;:&amp;quot;l&amp;quot;,&amp;quot;v&amp;quot;:&amp;quot;auto&amp;quot;},{&amp;quot;s&amp;quot;:2100,&amp;quot;n&amp;quot;:&amp;quot;il&amp;quot;,&amp;quot;v&amp;quot;:17.333333333333336},{&amp;quot;s&amp;quot;:2100,&amp;quot;n&amp;quot;:&amp;quot;fl&amp;quot;,&amp;quot;v&amp;quot;:17.333333333333336},{&amp;quot;s&amp;quot;:2100,&amp;quot;n&amp;quot;:&amp;quot;a&amp;quot;,&amp;quot;v&amp;quot;:&amp;quot;left&amp;quot;},{&amp;quot;s&amp;quot;:2156,&amp;quot;n&amp;quot;:&amp;quot;b&amp;quot;,&amp;quot;v&amp;quot;:true,&amp;quot;e&amp;quot;:2160},{&amp;quot;s&amp;quot;:2156,&amp;quot;n&amp;quot;:&amp;quot;t&amp;quot;,&amp;quot;v&amp;quot;:&amp;quot;ul&amp;quot;},{&amp;quot;s&amp;quot;:2156,&amp;quot;n&amp;quot;:&amp;quot;l&amp;quot;,&amp;quot;v&amp;quot;:&amp;quot;auto&amp;quot;},{&amp;quot;s&amp;quot;:2156,&amp;quot;n&amp;quot;:&amp;quot;il&amp;quot;,&amp;quot;v&amp;quot;:17.333333333333336},{&amp;quot;s&amp;quot;:2156,&amp;quot;n&amp;quot;:&amp;quot;fl&amp;quot;,&amp;quot;v&amp;quot;:17.333333333333336},{&amp;quot;s&amp;quot;:2156,&amp;quot;n&amp;quot;:&amp;quot;a&amp;quot;,&amp;quot;v&amp;quot;:&amp;quot;left&amp;quot;},{&amp;quot;s&amp;quot;:2188,&amp;quot;n&amp;quot;:&amp;quot;b&amp;quot;,&amp;quot;v&amp;quot;:true,&amp;quot;e&amp;quot;:2194},{&amp;quot;s&amp;quot;:2188,&amp;quot;n&amp;quot;:&amp;quot;t&amp;quot;,&amp;quot;v&amp;quot;:&amp;quot;ul&amp;quot;},{&amp;quot;s&amp;quot;:2188,&amp;quot;n&amp;quot;:&amp;quot;l&amp;quot;,&amp;quot;v&amp;quot;:&amp;quot;auto&amp;quot;},{&amp;quot;s&amp;quot;:2188,&amp;quot;n&amp;quot;:&amp;quot;il&amp;quot;,&amp;quot;v&amp;quot;:17.333333333333336},{&amp;quot;s&amp;quot;:2188,&amp;quot;n&amp;quot;:&amp;quot;fl&amp;quot;,&amp;quot;v&amp;quot;:17.333333333333336},{&amp;quot;s&amp;quot;:2188,&amp;quot;n&amp;quot;:&amp;quot;a&amp;quot;,&amp;quot;v&amp;quot;:&amp;quot;left&amp;quot;},{&amp;quot;s&amp;quot;:2045,&amp;quot;n&amp;quot;:&amp;quot;s&amp;quot;,&amp;quot;v&amp;quot;:17.333333333333336,&amp;quot;e&amp;quot;:2224},{&amp;quot;s&amp;quot;:2224,&amp;quot;n&amp;quot;:&amp;quot;s&amp;quot;,&amp;quot;v&amp;quot;:20.28,&amp;quot;e&amp;quot;:2243},{&amp;quot;s&amp;quot;:2224,&amp;quot;n&amp;quot;:&amp;quot;b&amp;quot;,&amp;quot;v&amp;quot;:true,&amp;quot;e&amp;quot;:2243},{&amp;quot;s&amp;quot;:2244,&amp;quot;n&amp;quot;:&amp;quot;b&amp;quot;,&amp;quot;v&amp;quot;:true,&amp;quot;e&amp;quot;:2251},{&amp;quot;s&amp;quot;:2244,&amp;quot;n&amp;quot;:&amp;quot;t&amp;quot;,&amp;quot;v&amp;quot;:&amp;quot;ul&amp;quot;},{&amp;quot;s&amp;quot;:2244,&amp;quot;n&amp;quot;:&amp;quot;l&amp;quot;,&amp;quot;v&amp;quot;:&amp;quot;auto&amp;quot;},{&amp;quot;s&amp;quot;:2244,&amp;quot;n&amp;quot;:&amp;quot;il&amp;quot;,&amp;quot;v&amp;quot;:17.333333333333336},{&amp;quot;s&amp;quot;:2244,&amp;quot;n&amp;quot;:&amp;quot;fl&amp;quot;,&amp;quot;v&amp;quot;:17.333333333333336},{&amp;quot;s&amp;quot;:2244,&amp;quot;n&amp;quot;:&amp;quot;a&amp;quot;,&amp;quot;v&amp;quot;:&amp;quot;left&amp;quot;},{&amp;quot;s&amp;quot;:2289,&amp;quot;n&amp;quot;:&amp;quot;b&amp;quot;,&amp;quot;v&amp;quot;:true,&amp;quot;e&amp;quot;:2293},{&amp;quot;s&amp;quot;:2289,&amp;quot;n&amp;quot;:&amp;quot;t&amp;quot;,&amp;quot;v&amp;quot;:&amp;quot;ul&amp;quot;},{&amp;quot;s&amp;quot;:2289,&amp;quot;n&amp;quot;:&amp;quot;l&amp;quot;,&amp;quot;v&amp;quot;:&amp;quot;auto&amp;quot;},{&amp;quot;s&amp;quot;:2289,&amp;quot;n&amp;quot;:&amp;quot;il&amp;quot;,&amp;quot;v&amp;quot;:17.333333333333336},{&amp;quot;s&amp;quot;:2289,&amp;quot;n&amp;quot;:&amp;quot;fl&amp;quot;,&amp;quot;v&amp;quot;:17.333333333333336},{&amp;quot;s&amp;quot;:2289,&amp;quot;n&amp;quot;:&amp;quot;a&amp;quot;,&amp;quot;v&amp;quot;:&amp;quot;left&amp;quot;},{&amp;quot;s&amp;quot;:2318,&amp;quot;n&amp;quot;:&amp;quot;b&amp;quot;,&amp;quot;v&amp;quot;:true,&amp;quot;e&amp;quot;:2332},{&amp;quot;s&amp;quot;:2318,&amp;quot;n&amp;quot;:&amp;quot;t&amp;quot;,&amp;quot;v&amp;quot;:&amp;quot;ul&amp;quot;},{&amp;quot;s&amp;quot;:2318,&amp;quot;n&amp;quot;:&amp;quot;l&amp;quot;,&amp;quot;v&amp;quot;:&amp;quot;auto&amp;quot;},{&amp;quot;s&amp;quot;:2318,&amp;quot;n&amp;quot;:&amp;quot;il&amp;quot;,&amp;quot;v&amp;quot;:17.333333333333336},{&amp;quot;s&amp;quot;:2318,&amp;quot;n&amp;quot;:&amp;quot;fl&amp;quot;,&amp;quot;v&amp;quot;:17.333333333333336},{&amp;quot;s&amp;quot;:2318,&amp;quot;n&amp;quot;:&amp;quot;a&amp;quot;,&amp;quot;v&amp;quot;:&amp;quot;left&amp;quot;},{&amp;quot;s&amp;quot;:2374,&amp;quot;n&amp;quot;:&amp;quot;b&amp;quot;,&amp;quot;v&amp;quot;:true,&amp;quot;e&amp;quot;:2384},{&amp;quot;s&amp;quot;:2374,&amp;quot;n&amp;quot;:&amp;quot;t&amp;quot;,&amp;quot;v&amp;quot;:&amp;quot;ul&amp;quot;},{&amp;quot;s&amp;quot;:2374,&amp;quot;n&amp;quot;:&amp;quot;l&amp;quot;,&amp;quot;v&amp;quot;:&amp;quot;auto&amp;quot;},{&amp;quot;s&amp;quot;:2374,&amp;quot;n&amp;quot;:&amp;quot;il&amp;quot;,&amp;quot;v&amp;quot;:17.333333333333336},{&amp;quot;s&amp;quot;:2374,&amp;quot;n&amp;quot;:&amp;quot;fl&amp;quot;,&amp;quot;v&amp;quot;:17.333333333333336},{&amp;quot;s&amp;quot;:2374,&amp;quot;n&amp;quot;:&amp;quot;a&amp;quot;,&amp;quot;v&amp;quot;:&amp;quot;left&amp;quot;},{&amp;quot;s&amp;quot;:2443,&amp;quot;n&amp;quot;:&amp;quot;b&amp;quot;,&amp;quot;v&amp;quot;:true,&amp;quot;e&amp;quot;:2453},{&amp;quot;s&amp;quot;:2455,&amp;quot;n&amp;quot;:&amp;quot;b&amp;quot;,&amp;quot;v&amp;quot;:true,&amp;quot;e&amp;quot;:2466},{&amp;quot;s&amp;quot;:2443,&amp;quot;n&amp;quot;:&amp;quot;t&amp;quot;,&amp;quot;v&amp;quot;:&amp;quot;ul&amp;quot;},{&amp;quot;s&amp;quot;:2443,&amp;quot;n&amp;quot;:&amp;quot;l&amp;quot;,&amp;quot;v&amp;quot;:&amp;quot;auto&amp;quot;},{&amp;quot;s&amp;quot;:2443,&amp;quot;n&amp;quot;:&amp;quot;il&amp;quot;,&amp;quot;v&amp;quot;:17.333333333333336},{&amp;quot;s&amp;quot;:2443,&amp;quot;n&amp;quot;:&amp;quot;fl&amp;quot;,&amp;quot;v&amp;quot;:17.333333333333336},{&amp;quot;s&amp;quot;:2443,&amp;quot;n&amp;quot;:&amp;quot;a&amp;quot;,&amp;quot;v&amp;quot;:&amp;quot;left&amp;quot;},{&amp;quot;s&amp;quot;:2243,&amp;quot;n&amp;quot;:&amp;quot;s&amp;quot;,&amp;quot;v&amp;quot;:17.333333333333336,&amp;quot;e&amp;quot;:2523},{&amp;quot;s&amp;quot;:2523,&amp;quot;n&amp;quot;:&amp;quot;s&amp;quot;,&amp;quot;v&amp;quot;:20.28,&amp;quot;e&amp;quot;:2549},{&amp;quot;s&amp;quot;:2523,&amp;quot;n&amp;quot;:&amp;quot;b&amp;quot;,&amp;quot;v&amp;quot;:true,&amp;quot;e&amp;quot;:2549},{&amp;quot;s&amp;quot;:2550,&amp;quot;n&amp;quot;:&amp;quot;b&amp;quot;,&amp;quot;v&amp;quot;:true,&amp;quot;e&amp;quot;:2559},{&amp;quot;s&amp;quot;:2550,&amp;quot;n&amp;quot;:&amp;quot;t&amp;quot;,&amp;quot;v&amp;quot;:&amp;quot;ul&amp;quot;},{&amp;quot;s&amp;quot;:2550,&amp;quot;n&amp;quot;:&amp;quot;l&amp;quot;,&amp;quot;v&amp;quot;:&amp;quot;auto&amp;quot;},{&amp;quot;s&amp;quot;:2550,&amp;quot;n&amp;quot;:&amp;quot;il&amp;quot;,&amp;quot;v&amp;quot;:17.333333333333336},{&amp;quot;s&amp;quot;:2550,&amp;quot;n&amp;quot;:&amp;quot;fl&amp;quot;,&amp;quot;v&amp;quot;:17.333333333333336},{&amp;quot;s&amp;quot;:2550,&amp;quot;n&amp;quot;:&amp;quot;a&amp;quot;,&amp;quot;v&amp;quot;:&amp;quot;left&amp;quot;},{&amp;quot;s&amp;quot;:2633,&amp;quot;n&amp;quot;:&amp;quot;b&amp;quot;,&amp;quot;v&amp;quot;:true,&amp;quot;e&amp;quot;:2642},{&amp;quot;s&amp;quot;:2633,&amp;quot;n&amp;quot;:&amp;quot;t&amp;quot;,&amp;quot;v&amp;quot;:&amp;quot;ul&amp;quot;},{&amp;quot;s&amp;quot;:2633,&amp;quot;n&amp;quot;:&amp;quot;l&amp;quot;,&amp;quot;v&amp;quot;:&amp;quot;auto&amp;quot;},{&amp;quot;s&amp;quot;:2633,&amp;quot;n&amp;quot;:&amp;quot;il&amp;quot;,&amp;quot;v&amp;quot;:17.333333333333336},{&amp;quot;s&amp;quot;:2633,&amp;quot;n&amp;quot;:&amp;quot;fl&amp;quot;,&amp;quot;v&amp;quot;:17.333333333333336},{&amp;quot;s&amp;quot;:2633,&amp;quot;n&amp;quot;:&amp;quot;a&amp;quot;,&amp;quot;v&amp;quot;:&amp;quot;left&amp;quot;},{&amp;quot;s&amp;quot;:2690,&amp;quot;n&amp;quot;:&amp;quot;b&amp;quot;,&amp;quot;v&amp;quot;:true,&amp;quot;e&amp;quot;:2701},{&amp;quot;s&amp;quot;:2690,&amp;quot;n&amp;quot;:&amp;quot;t&amp;quot;,&amp;quot;v&amp;quot;:&amp;quot;ul&amp;quot;},{&amp;quot;s&amp;quot;:2690,&amp;quot;n&amp;quot;:&amp;quot;l&amp;quot;,&amp;quot;v&amp;quot;:&amp;quot;auto&amp;quot;},{&amp;quot;s&amp;quot;:2690,&amp;quot;n&amp;quot;:&amp;quot;il&amp;quot;,&amp;quot;v&amp;quot;:17.333333333333336},{&amp;quot;s&amp;quot;:2690,&amp;quot;n&amp;quot;:&amp;quot;fl&amp;quot;,&amp;quot;v&amp;quot;:17.333333333333336},{&amp;quot;s&amp;quot;:2690,&amp;quot;n&amp;quot;:&amp;quot;a&amp;quot;,&amp;quot;v&amp;quot;:&amp;quot;left&amp;quot;},{&amp;quot;s&amp;quot;:2733,&amp;quot;n&amp;quot;:&amp;quot;b&amp;quot;,&amp;quot;v&amp;quot;:true,&amp;quot;e&amp;quot;:2737},{&amp;quot;s&amp;quot;:2733,&amp;quot;n&amp;quot;:&amp;quot;t&amp;quot;,&amp;quot;v&amp;quot;:&amp;quot;ul&amp;quot;},{&amp;quot;s&amp;quot;:2733,&amp;quot;n&amp;quot;:&amp;quot;l&amp;quot;,&amp;quot;v&amp;quot;:&amp;quot;auto&amp;quot;},{&amp;quot;s&amp;quot;:2733,&amp;quot;n&amp;quot;:&amp;quot;il&amp;quot;,&amp;quot;v&amp;quot;:17.333333333333336},{&amp;quot;s&amp;quot;:2733,&amp;quot;n&amp;quot;:&amp;quot;fl&amp;quot;,&amp;quot;v&amp;quot;:17.333333333333336},{&amp;quot;s&amp;quot;:2733,&amp;quot;n&amp;quot;:&amp;quot;a&amp;quot;,&amp;quot;v&amp;quot;:&amp;quot;left&amp;quot;},{&amp;quot;s&amp;quot;:2549,&amp;quot;n&amp;quot;:&amp;quot;s&amp;quot;,&amp;quot;v&amp;quot;:17.333333333333336,&amp;quot;e&amp;quot;:2796}]}&quot; data-lucid-type=&quot;application/vnd.lucid.text&quot;&gt;&lt;span style=&quot;font-weight:bold;font-size:15.21px;&quot;&gt;Languages&lt;/span&gt;&lt;span style=&quot;font-size:13.000000000000002px;&quot;&gt;&lt;/span&gt;&lt;/span&gt;" style="rounded=0;whiteSpace=wrap;html=1;" parent="1" vertex="1">
          <mxGeometry x="820" y="950" width="120" height="60" as="geometry" />
        </mxCell>
        <mxCell id="eIFraDozomn_EEBno7Bz-61" style="edgeStyle=none;rounded=0;orthogonalLoop=1;jettySize=auto;html=1;exitX=1;exitY=1;exitDx=0;exitDy=0;entryX=0;entryY=0;entryDx=0;entryDy=0;strokeColor=default;align=center;verticalAlign=middle;fontFamily=Helvetica;fontSize=11;fontColor=default;labelBackgroundColor=default;endArrow=none;" parent="1" source="eIFraDozomn_EEBno7Bz-2" target="eIFraDozomn_EEBno7Bz-60" edge="1">
          <mxGeometry relative="1" as="geometry" />
        </mxCell>
        <mxCell id="eIFraDozomn_EEBno7Bz-109" value="" style="edgeStyle=none;rounded=0;orthogonalLoop=1;jettySize=auto;html=1;strokeColor=default;align=center;verticalAlign=middle;fontFamily=Helvetica;fontSize=11;fontColor=default;labelBackgroundColor=default;endArrow=none;" parent="1" source="eIFraDozomn_EEBno7Bz-2" target="eIFraDozomn_EEBno7Bz-106" edge="1">
          <mxGeometry relative="1" as="geometry" />
        </mxCell>
        <mxCell id="eIFraDozomn_EEBno7Bz-110" value="" style="edgeStyle=none;rounded=0;orthogonalLoop=1;jettySize=auto;html=1;strokeColor=default;align=center;verticalAlign=middle;fontFamily=Helvetica;fontSize=11;fontColor=default;labelBackgroundColor=default;endArrow=none;" parent="1" source="eIFraDozomn_EEBno7Bz-2" target="eIFraDozomn_EEBno7Bz-106" edge="1">
          <mxGeometry relative="1" as="geometry" />
        </mxCell>
        <mxCell id="eIFraDozomn_EEBno7Bz-111" style="edgeStyle=none;rounded=0;orthogonalLoop=1;jettySize=auto;html=1;exitX=1;exitY=0;exitDx=0;exitDy=0;strokeColor=default;align=center;verticalAlign=middle;fontFamily=Helvetica;fontSize=11;fontColor=default;labelBackgroundColor=default;endArrow=none;" parent="1" source="eIFraDozomn_EEBno7Bz-2" target="eIFraDozomn_EEBno7Bz-108" edge="1">
          <mxGeometry relative="1" as="geometry" />
        </mxCell>
        <mxCell id="eIFraDozomn_EEBno7Bz-112" style="edgeStyle=none;rounded=0;orthogonalLoop=1;jettySize=auto;html=1;exitX=0.75;exitY=0;exitDx=0;exitDy=0;strokeColor=default;align=center;verticalAlign=middle;fontFamily=Helvetica;fontSize=11;fontColor=default;labelBackgroundColor=default;endArrow=none;" parent="1" source="eIFraDozomn_EEBno7Bz-2" target="eIFraDozomn_EEBno7Bz-104" edge="1">
          <mxGeometry relative="1" as="geometry" />
        </mxCell>
        <mxCell id="eIFraDozomn_EEBno7Bz-2" value="&lt;span data-lucid-content=&quot;{&amp;quot;t&amp;quot;:&amp;quot;A. Languages\nID: A unique identifier for each language.\nName: The name of the language.\nNumberOfNativeSpeakers: The number of native speakers worldwide.\nB. Courses\nID: A unique identifier for each course.\nName: The name of the course.\nStartDate: The starting date of the course.\nDifficultyLevel: The level of difficulty of the course.\nLanguageID: A foreign key linking to the Languages table to indicate which language the course covers.\nC. Subscribers\nID: A unique identifier for each subscriber.\nName: The name of the subscriber.\nUsername: A unique username for the subscriber.\nEmail: A unique email for the subscriber.\nLastLoginDate (for learners): The last date the subscriber logged in.\nExperiencePoints (for learners): The number of experience points the learner has collected.\nPhoneNumber (for teachers): A unique phone number for the teacher.\nOfficeHours (for teachers): The office hours of the teacher.\nBank (for teachers): Bank identifier.\nLedger (for teachers): Ledger number.\nAccountNumber (for teachers): Account number.\nD. Teacher-Course Relationship\nThis can be implemented through a junction table if teachers can teach multiple courses and each course is taught by a single teacher:\nTeacherID: Link to the Subscribers table where the subscriber is a teacher.\nCourseID: Link to the Courses table.\nE. Registrations &amp;amp; Reviews\nLearnerID: Link to the Subscribers table where the subscriber is a learner.\nCourseID: Link to the Courses table for registrations.\nTeacherID: Link to the Subscribers table where the subscriber is a teacher, for reviews.\nStars: The number of stars given by the learner in the review.\nF. Milestones\nID: A unique identifier for each milestone.\nCourseID: A foreign key linking to the Courses table.\nCredits: The number of credits for the milestone.\nG. Assignments &amp;amp; Exams (types of Milestones)\nMilestoneID: A unique identifier linking back to the Milestones table.\nDueDate (for Assignments): The due date for the assignment.\nExamDate, Duration (for Exams): The date and duration of the exam.\nH. Exam Questions\nExamID: A link to the Exams (a subset of Milestones).\nQuestionNumber: The number of the question in the exam.\nText: The text of the question.\nWeight: The weight of the question.\nI. Squads &amp;amp; Follows\nSquadID: A unique identifier for each squad.\nName: The name of the squad.\nMeetingAddress: The meeting point address of the squad.\nLanguageID: A foreign key linking to the Languages table (optional).\nFollowerID, FollowingID: Links to the Subscribers table to represent followers.\nJ. Sponsorships (Sponsees)\nSponseeID: A unique identifier for each sponsee (could be a LearnerID or SquadID).\nTeacherID: The ID of the teacher nominating the sponsee.\nGrantAmount: The amount of grant received.\nYear: The year of the nomination to ensure uniqueness annually.&amp;quot;,&amp;quot;m&amp;quot;:[{&amp;quot;s&amp;quot;:0,&amp;quot;n&amp;quot;:&amp;quot;s&amp;quot;,&amp;quot;v&amp;quot;:20.28,&amp;quot;e&amp;quot;:12},{&amp;quot;s&amp;quot;:0,&amp;quot;n&amp;quot;:&amp;quot;b&amp;quot;,&amp;quot;v&amp;quot;:true,&amp;quot;e&amp;quot;:12},{&amp;quot;s&amp;quot;:13,&amp;quot;n&amp;quot;:&amp;quot;b&amp;quot;,&amp;quot;v&amp;quot;:true,&amp;quot;e&amp;quot;:15},{&amp;quot;s&amp;quot;:13,&amp;quot;n&amp;quot;:&amp;quot;t&amp;quot;,&amp;quot;v&amp;quot;:&amp;quot;ul&amp;quot;},{&amp;quot;s&amp;quot;:13,&amp;quot;n&amp;quot;:&amp;quot;l&amp;quot;,&amp;quot;v&amp;quot;:&amp;quot;auto&amp;quot;},{&amp;quot;s&amp;quot;:13,&amp;quot;n&amp;quot;:&amp;quot;il&amp;quot;,&amp;quot;v&amp;quot;:17.333333333333336},{&amp;quot;s&amp;quot;:13,&amp;quot;n&amp;quot;:&amp;quot;fl&amp;quot;,&amp;quot;v&amp;quot;:17.333333333333336},{&amp;quot;s&amp;quot;:13,&amp;quot;n&amp;quot;:&amp;quot;a&amp;quot;,&amp;quot;v&amp;quot;:&amp;quot;left&amp;quot;},{&amp;quot;s&amp;quot;:56,&amp;quot;n&amp;quot;:&amp;quot;b&amp;quot;,&amp;quot;v&amp;quot;:true,&amp;quot;e&amp;quot;:60},{&amp;quot;s&amp;quot;:56,&amp;quot;n&amp;quot;:&amp;quot;t&amp;quot;,&amp;quot;v&amp;quot;:&amp;quot;ul&amp;quot;},{&amp;quot;s&amp;quot;:56,&amp;quot;n&amp;quot;:&amp;quot;l&amp;quot;,&amp;quot;v&amp;quot;:&amp;quot;auto&amp;quot;},{&amp;quot;s&amp;quot;:56,&amp;quot;n&amp;quot;:&amp;quot;il&amp;quot;,&amp;quot;v&amp;quot;:17.333333333333336},{&amp;quot;s&amp;quot;:56,&amp;quot;n&amp;quot;:&amp;quot;fl&amp;quot;,&amp;quot;v&amp;quot;:17.333333333333336},{&amp;quot;s&amp;quot;:56,&amp;quot;n&amp;quot;:&amp;quot;a&amp;quot;,&amp;quot;v&amp;quot;:&amp;quot;left&amp;quot;},{&amp;quot;s&amp;quot;:88,&amp;quot;n&amp;quot;:&amp;quot;b&amp;quot;,&amp;quot;v&amp;quot;:true,&amp;quot;e&amp;quot;:110},{&amp;quot;s&amp;quot;:88,&amp;quot;n&amp;quot;:&amp;quot;t&amp;quot;,&amp;quot;v&amp;quot;:&amp;quot;ul&amp;quot;},{&amp;quot;s&amp;quot;:88,&amp;quot;n&amp;quot;:&amp;quot;l&amp;quot;,&amp;quot;v&amp;quot;:&amp;quot;auto&amp;quot;},{&amp;quot;s&amp;quot;:88,&amp;quot;n&amp;quot;:&amp;quot;il&amp;quot;,&amp;quot;v&amp;quot;:17.333333333333336},{&amp;quot;s&amp;quot;:88,&amp;quot;n&amp;quot;:&amp;quot;fl&amp;quot;,&amp;quot;v&amp;quot;:17.333333333333336},{&amp;quot;s&amp;quot;:88,&amp;quot;n&amp;quot;:&amp;quot;a&amp;quot;,&amp;quot;v&amp;quot;:&amp;quot;left&amp;quot;},{&amp;quot;s&amp;quot;:12,&amp;quot;n&amp;quot;:&amp;quot;s&amp;quot;,&amp;quot;v&amp;quot;:17.333333333333336,&amp;quot;e&amp;quot;:153},{&amp;quot;s&amp;quot;:153,&amp;quot;n&amp;quot;:&amp;quot;s&amp;quot;,&amp;quot;v&amp;quot;:20.28,&amp;quot;e&amp;quot;:163},{&amp;quot;s&amp;quot;:153,&amp;quot;n&amp;quot;:&amp;quot;b&amp;quot;,&amp;quot;v&amp;quot;:true,&amp;quot;e&amp;quot;:163},{&amp;quot;s&amp;quot;:164,&amp;quot;n&amp;quot;:&amp;quot;b&amp;quot;,&amp;quot;v&amp;quot;:true,&amp;quot;e&amp;quot;:166},{&amp;quot;s&amp;quot;:164,&amp;quot;n&amp;quot;:&amp;quot;t&amp;quot;,&amp;quot;v&amp;quot;:&amp;quot;ul&amp;quot;},{&amp;quot;s&amp;quot;:164,&amp;quot;n&amp;quot;:&amp;quot;l&amp;quot;,&amp;quot;v&amp;quot;:&amp;quot;auto&amp;quot;},{&amp;quot;s&amp;quot;:164,&amp;quot;n&amp;quot;:&amp;quot;il&amp;quot;,&amp;quot;v&amp;quot;:17.333333333333336},{&amp;quot;s&amp;quot;:164,&amp;quot;n&amp;quot;:&amp;quot;fl&amp;quot;,&amp;quot;v&amp;quot;:17.333333333333336},{&amp;quot;s&amp;quot;:164,&amp;quot;n&amp;quot;:&amp;quot;a&amp;quot;,&amp;quot;v&amp;quot;:&amp;quot;left&amp;quot;},{&amp;quot;s&amp;quot;:205,&amp;quot;n&amp;quot;:&amp;quot;b&amp;quot;,&amp;quot;v&amp;quot;:true,&amp;quot;e&amp;quot;:209},{&amp;quot;s&amp;quot;:205,&amp;quot;n&amp;quot;:&amp;quot;t&amp;quot;,&amp;quot;v&amp;quot;:&amp;quot;ul&amp;quot;},{&amp;quot;s&amp;quot;:205,&amp;quot;n&amp;quot;:&amp;quot;l&amp;quot;,&amp;quot;v&amp;quot;:&amp;quot;auto&amp;quot;},{&amp;quot;s&amp;quot;:205,&amp;quot;n&amp;quot;:&amp;quot;il&amp;quot;,&amp;quot;v&amp;quot;:17.333333333333336},{&amp;quot;s&amp;quot;:205,&amp;quot;n&amp;quot;:&amp;quot;fl&amp;quot;,&amp;quot;v&amp;quot;:17.333333333333336},{&amp;quot;s&amp;quot;:205,&amp;quot;n&amp;quot;:&amp;quot;a&amp;quot;,&amp;quot;v&amp;quot;:&amp;quot;left&amp;quot;},{&amp;quot;s&amp;quot;:235,&amp;quot;n&amp;quot;:&amp;quot;b&amp;quot;,&amp;quot;v&amp;quot;:true,&amp;quot;e&amp;quot;:244},{&amp;quot;s&amp;quot;:235,&amp;quot;n&amp;quot;:&amp;quot;t&amp;quot;,&amp;quot;v&amp;quot;:&amp;quot;ul&amp;quot;},{&amp;quot;s&amp;quot;:235,&amp;quot;n&amp;quot;:&amp;quot;l&amp;quot;,&amp;quot;v&amp;quot;:&amp;quot;auto&amp;quot;},{&amp;quot;s&amp;quot;:235,&amp;quot;n&amp;quot;:&amp;quot;il&amp;quot;,&amp;quot;v&amp;quot;:17.333333333333336},{&amp;quot;s&amp;quot;:235,&amp;quot;n&amp;quot;:&amp;quot;fl&amp;quot;,&amp;quot;v&amp;quot;:17.333333333333336},{&amp;quot;s&amp;quot;:235,&amp;quot;n&amp;quot;:&amp;quot;a&amp;quot;,&amp;quot;v&amp;quot;:&amp;quot;left&amp;quot;},{&amp;quot;s&amp;quot;:279,&amp;quot;n&amp;quot;:&amp;quot;b&amp;quot;,&amp;quot;v&amp;quot;:true,&amp;quot;e&amp;quot;:294},{&amp;quot;s&amp;quot;:279,&amp;quot;n&amp;quot;:&amp;quot;t&amp;quot;,&amp;quot;v&amp;quot;:&amp;quot;ul&amp;quot;},{&amp;quot;s&amp;quot;:279,&amp;quot;n&amp;quot;:&amp;quot;l&amp;quot;,&amp;quot;v&amp;quot;:&amp;quot;auto&amp;quot;},{&amp;quot;s&amp;quot;:279,&amp;quot;n&amp;quot;:&amp;quot;il&amp;quot;,&amp;quot;v&amp;quot;:17.333333333333336},{&amp;quot;s&amp;quot;:279,&amp;quot;n&amp;quot;:&amp;quot;fl&amp;quot;,&amp;quot;v&amp;quot;:17.333333333333336},{&amp;quot;s&amp;quot;:279,&amp;quot;n&amp;quot;:&amp;quot;a&amp;quot;,&amp;quot;v&amp;quot;:&amp;quot;left&amp;quot;},{&amp;quot;s&amp;quot;:335,&amp;quot;n&amp;quot;:&amp;quot;b&amp;quot;,&amp;quot;v&amp;quot;:true,&amp;quot;e&amp;quot;:345},{&amp;quot;s&amp;quot;:335,&amp;quot;n&amp;quot;:&amp;quot;t&amp;quot;,&amp;quot;v&amp;quot;:&amp;quot;ul&amp;quot;},{&amp;quot;s&amp;quot;:335,&amp;quot;n&amp;quot;:&amp;quot;l&amp;quot;,&amp;quot;v&amp;quot;:&amp;quot;auto&amp;quot;},{&amp;quot;s&amp;quot;:335,&amp;quot;n&amp;quot;:&amp;quot;il&amp;quot;,&amp;quot;v&amp;quot;:17.333333333333336},{&amp;quot;s&amp;quot;:335,&amp;quot;n&amp;quot;:&amp;quot;fl&amp;quot;,&amp;quot;v&amp;quot;:17.333333333333336},{&amp;quot;s&amp;quot;:335,&amp;quot;n&amp;quot;:&amp;quot;a&amp;quot;,&amp;quot;v&amp;quot;:&amp;quot;left&amp;quot;},{&amp;quot;s&amp;quot;:163,&amp;quot;n&amp;quot;:&amp;quot;s&amp;quot;,&amp;quot;v&amp;quot;:17.333333333333336,&amp;quot;e&amp;quot;:438},{&amp;quot;s&amp;quot;:438,&amp;quot;n&amp;quot;:&amp;quot;s&amp;quot;,&amp;quot;v&amp;quot;:20.28,&amp;quot;e&amp;quot;:452},{&amp;quot;s&amp;quot;:438,&amp;quot;n&amp;quot;:&amp;quot;b&amp;quot;,&amp;quot;v&amp;quot;:true,&amp;quot;e&amp;quot;:452},{&amp;quot;s&amp;quot;:453,&amp;quot;n&amp;quot;:&amp;quot;b&amp;quot;,&amp;quot;v&amp;quot;:true,&amp;quot;e&amp;quot;:455},{&amp;quot;s&amp;quot;:453,&amp;quot;n&amp;quot;:&amp;quot;t&amp;quot;,&amp;quot;v&amp;quot;:&amp;quot;ul&amp;quot;},{&amp;quot;s&amp;quot;:453,&amp;quot;n&amp;quot;:&amp;quot;l&amp;quot;,&amp;quot;v&amp;quot;:&amp;quot;auto&amp;quot;},{&amp;quot;s&amp;quot;:453,&amp;quot;n&amp;quot;:&amp;quot;il&amp;quot;,&amp;quot;v&amp;quot;:17.333333333333336},{&amp;quot;s&amp;quot;:453,&amp;quot;n&amp;quot;:&amp;quot;fl&amp;quot;,&amp;quot;v&amp;quot;:17.333333333333336},{&amp;quot;s&amp;quot;:453,&amp;quot;n&amp;quot;:&amp;quot;a&amp;quot;,&amp;quot;v&amp;quot;:&amp;quot;left&amp;quot;},{&amp;quot;s&amp;quot;:498,&amp;quot;n&amp;quot;:&amp;quot;b&amp;quot;,&amp;quot;v&amp;quot;:true,&amp;quot;e&amp;quot;:502},{&amp;quot;s&amp;quot;:498,&amp;quot;n&amp;quot;:&amp;quot;t&amp;quot;,&amp;quot;v&amp;quot;:&amp;quot;ul&amp;quot;},{&amp;quot;s&amp;quot;:498,&amp;quot;n&amp;quot;:&amp;quot;l&amp;quot;,&amp;quot;v&amp;quot;:&amp;quot;auto&amp;quot;},{&amp;quot;s&amp;quot;:498,&amp;quot;n&amp;quot;:&amp;quot;il&amp;quot;,&amp;quot;v&amp;quot;:17.333333333333336},{&amp;quot;s&amp;quot;:498,&amp;quot;n&amp;quot;:&amp;quot;fl&amp;quot;,&amp;quot;v&amp;quot;:17.333333333333336},{&amp;quot;s&amp;quot;:498,&amp;quot;n&amp;quot;:&amp;quot;a&amp;quot;,&amp;quot;v&amp;quot;:&amp;quot;left&amp;quot;},{&amp;quot;s&amp;quot;:532,&amp;quot;n&amp;quot;:&amp;quot;b&amp;quot;,&amp;quot;v&amp;quot;:true,&amp;quot;e&amp;quot;:540},{&amp;quot;s&amp;quot;:532,&amp;quot;n&amp;quot;:&amp;quot;t&amp;quot;,&amp;quot;v&amp;quot;:&amp;quot;ul&amp;quot;},{&amp;quot;s&amp;quot;:532,&amp;quot;n&amp;quot;:&amp;quot;l&amp;quot;,&amp;quot;v&amp;quot;:&amp;quot;auto&amp;quot;},{&amp;quot;s&amp;quot;:532,&amp;quot;n&amp;quot;:&amp;quot;il&amp;quot;,&amp;quot;v&amp;quot;:17.333333333333336},{&amp;quot;s&amp;quot;:532,&amp;quot;n&amp;quot;:&amp;quot;fl&amp;quot;,&amp;quot;v&amp;quot;:17.333333333333336},{&amp;quot;s&amp;quot;:532,&amp;quot;n&amp;quot;:&amp;quot;a&amp;quot;,&amp;quot;v&amp;quot;:&amp;quot;left&amp;quot;},{&amp;quot;s&amp;quot;:580,&amp;quot;n&amp;quot;:&amp;quot;b&amp;quot;,&amp;quot;v&amp;quot;:true,&amp;quot;e&amp;quot;:585},{&amp;quot;s&amp;quot;:580,&amp;quot;n&amp;quot;:&amp;quot;t&amp;quot;,&amp;quot;v&amp;quot;:&amp;quot;ul&amp;quot;},{&amp;quot;s&amp;quot;:580,&amp;quot;n&amp;quot;:&amp;quot;l&amp;quot;,&amp;quot;v&amp;quot;:&amp;quot;auto&amp;quot;},{&amp;quot;s&amp;quot;:580,&amp;quot;n&amp;quot;:&amp;quot;il&amp;quot;,&amp;quot;v&amp;quot;:17.333333333333336},{&amp;quot;s&amp;quot;:580,&amp;quot;n&amp;quot;:&amp;quot;fl&amp;quot;,&amp;quot;v&amp;quot;:17.333333333333336},{&amp;quot;s&amp;quot;:580,&amp;quot;n&amp;quot;:&amp;quot;a&amp;quot;,&amp;quot;v&amp;quot;:&amp;quot;left&amp;quot;},{&amp;quot;s&amp;quot;:622,&amp;quot;n&amp;quot;:&amp;quot;b&amp;quot;,&amp;quot;v&amp;quot;:true,&amp;quot;e&amp;quot;:635},{&amp;quot;s&amp;quot;:622,&amp;quot;n&amp;quot;:&amp;quot;t&amp;quot;,&amp;quot;v&amp;quot;:&amp;quot;ul&amp;quot;},{&amp;quot;s&amp;quot;:622,&amp;quot;n&amp;quot;:&amp;quot;l&amp;quot;,&amp;quot;v&amp;quot;:&amp;quot;auto&amp;quot;},{&amp;quot;s&amp;quot;:622,&amp;quot;n&amp;quot;:&amp;quot;il&amp;quot;,&amp;quot;v&amp;quot;:17.333333333333336},{&amp;quot;s&amp;quot;:622,&amp;quot;n&amp;quot;:&amp;quot;fl&amp;quot;,&amp;quot;v&amp;quot;:17.333333333333336},{&amp;quot;s&amp;quot;:622,&amp;quot;n&amp;quot;:&amp;quot;a&amp;quot;,&amp;quot;v&amp;quot;:&amp;quot;left&amp;quot;},{&amp;quot;s&amp;quot;:692,&amp;quot;n&amp;quot;:&amp;quot;b&amp;quot;,&amp;quot;v&amp;quot;:true,&amp;quot;e&amp;quot;:708},{&amp;quot;s&amp;quot;:692,&amp;quot;n&amp;quot;:&amp;quot;t&amp;quot;,&amp;quot;v&amp;quot;:&amp;quot;ul&amp;quot;},{&amp;quot;s&amp;quot;:692,&amp;quot;n&amp;quot;:&amp;quot;l&amp;quot;,&amp;quot;v&amp;quot;:&amp;quot;auto&amp;quot;},{&amp;quot;s&amp;quot;:692,&amp;quot;n&amp;quot;:&amp;quot;il&amp;quot;,&amp;quot;v&amp;quot;:17.333333333333336},{&amp;quot;s&amp;quot;:692,&amp;quot;n&amp;quot;:&amp;quot;fl&amp;quot;,&amp;quot;v&amp;quot;:17.333333333333336},{&amp;quot;s&amp;quot;:692,&amp;quot;n&amp;quot;:&amp;quot;a&amp;quot;,&amp;quot;v&amp;quot;:&amp;quot;left&amp;quot;},{&amp;quot;s&amp;quot;:784,&amp;quot;n&amp;quot;:&amp;quot;b&amp;quot;,&amp;quot;v&amp;quot;:true,&amp;quot;e&amp;quot;:795},{&amp;quot;s&amp;quot;:784,&amp;quot;n&amp;quot;:&amp;quot;t&amp;quot;,&amp;quot;v&amp;quot;:&amp;quot;ul&amp;quot;},{&amp;quot;s&amp;quot;:784,&amp;quot;n&amp;quot;:&amp;quot;l&amp;quot;,&amp;quot;v&amp;quot;:&amp;quot;auto&amp;quot;},{&amp;quot;s&amp;quot;:784,&amp;quot;n&amp;quot;:&amp;quot;il&amp;quot;,&amp;quot;v&amp;quot;:17.333333333333336},{&amp;quot;s&amp;quot;:784,&amp;quot;n&amp;quot;:&amp;quot;fl&amp;quot;,&amp;quot;v&amp;quot;:17.333333333333336},{&amp;quot;s&amp;quot;:784,&amp;quot;n&amp;quot;:&amp;quot;a&amp;quot;,&amp;quot;v&amp;quot;:&amp;quot;left&amp;quot;},{&amp;quot;s&amp;quot;:851,&amp;quot;n&amp;quot;:&amp;quot;b&amp;quot;,&amp;quot;v&amp;quot;:true,&amp;quot;e&amp;quot;:862},{&amp;quot;s&amp;quot;:851,&amp;quot;n&amp;quot;:&amp;quot;t&amp;quot;,&amp;quot;v&amp;quot;:&amp;quot;ul&amp;quot;},{&amp;quot;s&amp;quot;:851,&amp;quot;n&amp;quot;:&amp;quot;l&amp;quot;,&amp;quot;v&amp;quot;:&amp;quot;auto&amp;quot;},{&amp;quot;s&amp;quot;:851,&amp;quot;n&amp;quot;:&amp;quot;il&amp;quot;,&amp;quot;v&amp;quot;:17.333333333333336},{&amp;quot;s&amp;quot;:851,&amp;quot;n&amp;quot;:&amp;quot;fl&amp;quot;,&amp;quot;v&amp;quot;:17.333333333333336},{&amp;quot;s&amp;quot;:851,&amp;quot;n&amp;quot;:&amp;quot;a&amp;quot;,&amp;quot;v&amp;quot;:&amp;quot;left&amp;quot;},{&amp;quot;s&amp;quot;:912,&amp;quot;n&amp;quot;:&amp;quot;b&amp;quot;,&amp;quot;v&amp;quot;:true,&amp;quot;e&amp;quot;:916},{&amp;quot;s&amp;quot;:912,&amp;quot;n&amp;quot;:&amp;quot;t&amp;quot;,&amp;quot;v&amp;quot;:&amp;quot;ul&amp;quot;},{&amp;quot;s&amp;quot;:912,&amp;quot;n&amp;quot;:&amp;quot;l&amp;quot;,&amp;quot;v&amp;quot;:&amp;quot;auto&amp;quot;},{&amp;quot;s&amp;quot;:912,&amp;quot;n&amp;quot;:&amp;quot;il&amp;quot;,&amp;quot;v&amp;quot;:17.333333333333336},{&amp;quot;s&amp;quot;:912,&amp;quot;n&amp;quot;:&amp;quot;fl&amp;quot;,&amp;quot;v&amp;quot;:17.333333333333336},{&amp;quot;s&amp;quot;:912,&amp;quot;n&amp;quot;:&amp;quot;a&amp;quot;,&amp;quot;v&amp;quot;:&amp;quot;left&amp;quot;},{&amp;quot;s&amp;quot;:950,&amp;quot;n&amp;quot;:&amp;quot;b&amp;quot;,&amp;quot;v&amp;quot;:true,&amp;quot;e&amp;quot;:956},{&amp;quot;s&amp;quot;:950,&amp;quot;n&amp;quot;:&amp;quot;t&amp;quot;,&amp;quot;v&amp;quot;:&amp;quot;ul&amp;quot;},{&amp;quot;s&amp;quot;:950,&amp;quot;n&amp;quot;:&amp;quot;l&amp;quot;,&amp;quot;v&amp;quot;:&amp;quot;auto&amp;quot;},{&amp;quot;s&amp;quot;:950,&amp;quot;n&amp;quot;:&amp;quot;il&amp;quot;,&amp;quot;v&amp;quot;:17.333333333333336},{&amp;quot;s&amp;quot;:950,&amp;quot;n&amp;quot;:&amp;quot;fl&amp;quot;,&amp;quot;v&amp;quot;:17.333333333333336},{&amp;quot;s&amp;quot;:950,&amp;quot;n&amp;quot;:&amp;quot;a&amp;quot;,&amp;quot;v&amp;quot;:&amp;quot;left&amp;quot;},{&amp;quot;s&amp;quot;:988,&amp;quot;n&amp;quot;:&amp;quot;b&amp;quot;,&amp;quot;v&amp;quot;:true,&amp;quot;e&amp;quot;:1001},{&amp;quot;s&amp;quot;:988,&amp;quot;n&amp;quot;:&amp;quot;t&amp;quot;,&amp;quot;v&amp;quot;:&amp;quot;ul&amp;quot;},{&amp;quot;s&amp;quot;:988,&amp;quot;n&amp;quot;:&amp;quot;l&amp;quot;,&amp;quot;v&amp;quot;:&amp;quot;auto&amp;quot;},{&amp;quot;s&amp;quot;:988,&amp;quot;n&amp;quot;:&amp;quot;il&amp;quot;,&amp;quot;v&amp;quot;:17.333333333333336},{&amp;quot;s&amp;quot;:988,&amp;quot;n&amp;quot;:&amp;quot;fl&amp;quot;,&amp;quot;v&amp;quot;:17.333333333333336},{&amp;quot;s&amp;quot;:988,&amp;quot;n&amp;quot;:&amp;quot;a&amp;quot;,&amp;quot;v&amp;quot;:&amp;quot;left&amp;quot;},{&amp;quot;s&amp;quot;:452,&amp;quot;n&amp;quot;:&amp;quot;s&amp;quot;,&amp;quot;v&amp;quot;:17.333333333333336,&amp;quot;e&amp;quot;:1034},{&amp;quot;s&amp;quot;:1034,&amp;quot;n&amp;quot;:&amp;quot;s&amp;quot;,&amp;quot;v&amp;quot;:20.28,&amp;quot;e&amp;quot;:1064},{&amp;quot;s&amp;quot;:1034,&amp;quot;n&amp;quot;:&amp;quot;b&amp;quot;,&amp;quot;v&amp;quot;:true,&amp;quot;e&amp;quot;:1064},{&amp;quot;s&amp;quot;:1200,&amp;quot;n&amp;quot;:&amp;quot;b&amp;quot;,&amp;quot;v&amp;quot;:true,&amp;quot;e&amp;quot;:1209},{&amp;quot;s&amp;quot;:1200,&amp;quot;n&amp;quot;:&amp;quot;t&amp;quot;,&amp;quot;v&amp;quot;:&amp;quot;ul&amp;quot;},{&amp;quot;s&amp;quot;:1200,&amp;quot;n&amp;quot;:&amp;quot;l&amp;quot;,&amp;quot;v&amp;quot;:&amp;quot;auto&amp;quot;},{&amp;quot;s&amp;quot;:1200,&amp;quot;n&amp;quot;:&amp;quot;il&amp;quot;,&amp;quot;v&amp;quot;:17.333333333333336},{&amp;quot;s&amp;quot;:1200,&amp;quot;n&amp;quot;:&amp;quot;fl&amp;quot;,&amp;quot;v&amp;quot;:17.333333333333336},{&amp;quot;s&amp;quot;:1200,&amp;quot;n&amp;quot;:&amp;quot;a&amp;quot;,&amp;quot;v&amp;quot;:&amp;quot;left&amp;quot;},{&amp;quot;s&amp;quot;:1276,&amp;quot;n&amp;quot;:&amp;quot;b&amp;quot;,&amp;quot;v&amp;quot;:true,&amp;quot;e&amp;quot;:1284},{&amp;quot;s&amp;quot;:1276,&amp;quot;n&amp;quot;:&amp;quot;t&amp;quot;,&amp;quot;v&amp;quot;:&amp;quot;ul&amp;quot;},{&amp;quot;s&amp;quot;:1276,&amp;quot;n&amp;quot;:&amp;quot;l&amp;quot;,&amp;quot;v&amp;quot;:&amp;quot;auto&amp;quot;},{&amp;quot;s&amp;quot;:1276,&amp;quot;n&amp;quot;:&amp;quot;il&amp;quot;,&amp;quot;v&amp;quot;:17.333333333333336},{&amp;quot;s&amp;quot;:1276,&amp;quot;n&amp;quot;:&amp;quot;fl&amp;quot;,&amp;quot;v&amp;quot;:17.333333333333336},{&amp;quot;s&amp;quot;:1276,&amp;quot;n&amp;quot;:&amp;quot;a&amp;quot;,&amp;quot;v&amp;quot;:&amp;quot;left&amp;quot;},{&amp;quot;s&amp;quot;:1064,&amp;quot;n&amp;quot;:&amp;quot;s&amp;quot;,&amp;quot;v&amp;quot;:17.333333333333336,&amp;quot;e&amp;quot;:1313},{&amp;quot;s&amp;quot;:1313,&amp;quot;n&amp;quot;:&amp;quot;s&amp;quot;,&amp;quot;v&amp;quot;:20.28,&amp;quot;e&amp;quot;:1339},{&amp;quot;s&amp;quot;:1313,&amp;quot;n&amp;quot;:&amp;quot;b&amp;quot;,&amp;quot;v&amp;quot;:true,&amp;quot;e&amp;quot;:1339},{&amp;quot;s&amp;quot;:1340,&amp;quot;n&amp;quot;:&amp;quot;b&amp;quot;,&amp;quot;v&amp;quot;:true,&amp;quot;e&amp;quot;:1349},{&amp;quot;s&amp;quot;:1340,&amp;quot;n&amp;quot;:&amp;quot;t&amp;quot;,&amp;quot;v&amp;quot;:&amp;quot;ul&amp;quot;},{&amp;quot;s&amp;quot;:1340,&amp;quot;n&amp;quot;:&amp;quot;l&amp;quot;,&amp;quot;v&amp;quot;:&amp;quot;auto&amp;quot;},{&amp;quot;s&amp;quot;:1340,&amp;quot;n&amp;quot;:&amp;quot;il&amp;quot;,&amp;quot;v&amp;quot;:17.333333333333336},{&amp;quot;s&amp;quot;:1340,&amp;quot;n&amp;quot;:&amp;quot;fl&amp;quot;,&amp;quot;v&amp;quot;:17.333333333333336},{&amp;quot;s&amp;quot;:1340,&amp;quot;n&amp;quot;:&amp;quot;a&amp;quot;,&amp;quot;v&amp;quot;:&amp;quot;left&amp;quot;},{&amp;quot;s&amp;quot;:1416,&amp;quot;n&amp;quot;:&amp;quot;b&amp;quot;,&amp;quot;v&amp;quot;:true,&amp;quot;e&amp;quot;:1424},{&amp;quot;s&amp;quot;:1416,&amp;quot;n&amp;quot;:&amp;quot;t&amp;quot;,&amp;quot;v&amp;quot;:&amp;quot;ul&amp;quot;},{&amp;quot;s&amp;quot;:1416,&amp;quot;n&amp;quot;:&amp;quot;l&amp;quot;,&amp;quot;v&amp;quot;:&amp;quot;auto&amp;quot;},{&amp;quot;s&amp;quot;:1416,&amp;quot;n&amp;quot;:&amp;quot;il&amp;quot;,&amp;quot;v&amp;quot;:17.333333333333336},{&amp;quot;s&amp;quot;:1416,&amp;quot;n&amp;quot;:&amp;quot;fl&amp;quot;,&amp;quot;v&amp;quot;:17.333333333333336},{&amp;quot;s&amp;quot;:1416,&amp;quot;n&amp;quot;:&amp;quot;a&amp;quot;,&amp;quot;v&amp;quot;:&amp;quot;left&amp;quot;},{&amp;quot;s&amp;quot;:1471,&amp;quot;n&amp;quot;:&amp;quot;b&amp;quot;,&amp;quot;v&amp;quot;:true,&amp;quot;e&amp;quot;:1480},{&amp;quot;s&amp;quot;:1471,&amp;quot;n&amp;quot;:&amp;quot;t&amp;quot;,&amp;quot;v&amp;quot;:&amp;quot;ul&amp;quot;},{&amp;quot;s&amp;quot;:1471,&amp;quot;n&amp;quot;:&amp;quot;l&amp;quot;,&amp;quot;v&amp;quot;:&amp;quot;auto&amp;quot;},{&amp;quot;s&amp;quot;:1471,&amp;quot;n&amp;quot;:&amp;quot;il&amp;quot;,&amp;quot;v&amp;quot;:17.333333333333336},{&amp;quot;s&amp;quot;:1471,&amp;quot;n&amp;quot;:&amp;quot;fl&amp;quot;,&amp;quot;v&amp;quot;:17.333333333333336},{&amp;quot;s&amp;quot;:1471,&amp;quot;n&amp;quot;:&amp;quot;a&amp;quot;,&amp;quot;v&amp;quot;:&amp;quot;left&amp;quot;},{&amp;quot;s&amp;quot;:1560,&amp;quot;n&amp;quot;:&amp;quot;b&amp;quot;,&amp;quot;v&amp;quot;:true,&amp;quot;e&amp;quot;:1565},{&amp;quot;s&amp;quot;:1560,&amp;quot;n&amp;quot;:&amp;quot;t&amp;quot;,&amp;quot;v&amp;quot;:&amp;quot;ul&amp;quot;},{&amp;quot;s&amp;quot;:1560,&amp;quot;n&amp;quot;:&amp;quot;l&amp;quot;,&amp;quot;v&amp;quot;:&amp;quot;auto&amp;quot;},{&amp;quot;s&amp;quot;:1560,&amp;quot;n&amp;quot;:&amp;quot;il&amp;quot;,&amp;quot;v&amp;quot;:17.333333333333336},{&amp;quot;s&amp;quot;:1560,&amp;quot;n&amp;quot;:&amp;quot;fl&amp;quot;,&amp;quot;v&amp;quot;:17.333333333333336},{&amp;quot;s&amp;quot;:1560,&amp;quot;n&amp;quot;:&amp;quot;a&amp;quot;,&amp;quot;v&amp;quot;:&amp;quot;left&amp;quot;},{&amp;quot;s&amp;quot;:1339,&amp;quot;n&amp;quot;:&amp;quot;s&amp;quot;,&amp;quot;v&amp;quot;:17.333333333333336,&amp;quot;e&amp;quot;:1623},{&amp;quot;s&amp;quot;:1623,&amp;quot;n&amp;quot;:&amp;quot;s&amp;quot;,&amp;quot;v&amp;quot;:20.28,&amp;quot;e&amp;quot;:1636},{&amp;quot;s&amp;quot;:1623,&amp;quot;n&amp;quot;:&amp;quot;b&amp;quot;,&amp;quot;v&amp;quot;:true,&amp;quot;e&amp;quot;:1636},{&amp;quot;s&amp;quot;:1637,&amp;quot;n&amp;quot;:&amp;quot;b&amp;quot;,&amp;quot;v&amp;quot;:true,&amp;quot;e&amp;quot;:1639},{&amp;quot;s&amp;quot;:1637,&amp;quot;n&amp;quot;:&amp;quot;t&amp;quot;,&amp;quot;v&amp;quot;:&amp;quot;ul&amp;quot;},{&amp;quot;s&amp;quot;:1637,&amp;quot;n&amp;quot;:&amp;quot;l&amp;quot;,&amp;quot;v&amp;quot;:&amp;quot;auto&amp;quot;},{&amp;quot;s&amp;quot;:1637,&amp;quot;n&amp;quot;:&amp;quot;il&amp;quot;,&amp;quot;v&amp;quot;:17.333333333333336},{&amp;quot;s&amp;quot;:1637,&amp;quot;n&amp;quot;:&amp;quot;fl&amp;quot;,&amp;quot;v&amp;quot;:17.333333333333336},{&amp;quot;s&amp;quot;:1637,&amp;quot;n&amp;quot;:&amp;quot;a&amp;quot;,&amp;quot;v&amp;quot;:&amp;quot;left&amp;quot;},{&amp;quot;s&amp;quot;:1681,&amp;quot;n&amp;quot;:&amp;quot;b&amp;quot;,&amp;quot;v&amp;quot;:true,&amp;quot;e&amp;quot;:1689},{&amp;quot;s&amp;quot;:1681,&amp;quot;n&amp;quot;:&amp;quot;t&amp;quot;,&amp;quot;v&amp;quot;:&amp;quot;ul&amp;quot;},{&amp;quot;s&amp;quot;:1681,&amp;quot;n&amp;quot;:&amp;quot;l&amp;quot;,&amp;quot;v&amp;quot;:&amp;quot;auto&amp;quot;},{&amp;quot;s&amp;quot;:1681,&amp;quot;n&amp;quot;:&amp;quot;il&amp;quot;,&amp;quot;v&amp;quot;:17.333333333333336},{&amp;quot;s&amp;quot;:1681,&amp;quot;n&amp;quot;:&amp;quot;fl&amp;quot;,&amp;quot;v&amp;quot;:17.333333333333336},{&amp;quot;s&amp;quot;:1681,&amp;quot;n&amp;quot;:&amp;quot;a&amp;quot;,&amp;quot;v&amp;quot;:&amp;quot;left&amp;quot;},{&amp;quot;s&amp;quot;:1735,&amp;quot;n&amp;quot;:&amp;quot;b&amp;quot;,&amp;quot;v&amp;quot;:true,&amp;quot;e&amp;quot;:1742},{&amp;quot;s&amp;quot;:1735,&amp;quot;n&amp;quot;:&amp;quot;t&amp;quot;,&amp;quot;v&amp;quot;:&amp;quot;ul&amp;quot;},{&amp;quot;s&amp;quot;:1735,&amp;quot;n&amp;quot;:&amp;quot;l&amp;quot;,&amp;quot;v&amp;quot;:&amp;quot;auto&amp;quot;},{&amp;quot;s&amp;quot;:1735,&amp;quot;n&amp;quot;:&amp;quot;il&amp;quot;,&amp;quot;v&amp;quot;:17.333333333333336},{&amp;quot;s&amp;quot;:1735,&amp;quot;n&amp;quot;:&amp;quot;fl&amp;quot;,&amp;quot;v&amp;quot;:17.333333333333336},{&amp;quot;s&amp;quot;:1735,&amp;quot;n&amp;quot;:&amp;quot;a&amp;quot;,&amp;quot;v&amp;quot;:&amp;quot;left&amp;quot;},{&amp;quot;s&amp;quot;:1636,&amp;quot;n&amp;quot;:&amp;quot;s&amp;quot;,&amp;quot;v&amp;quot;:17.333333333333336,&amp;quot;e&amp;quot;:1785},{&amp;quot;s&amp;quot;:1785,&amp;quot;n&amp;quot;:&amp;quot;s&amp;quot;,&amp;quot;v&amp;quot;:20.28,&amp;quot;e&amp;quot;:1829},{&amp;quot;s&amp;quot;:1785,&amp;quot;n&amp;quot;:&amp;quot;b&amp;quot;,&amp;quot;v&amp;quot;:true,&amp;quot;e&amp;quot;:1829},{&amp;quot;s&amp;quot;:1830,&amp;quot;n&amp;quot;:&amp;quot;b&amp;quot;,&amp;quot;v&amp;quot;:true,&amp;quot;e&amp;quot;:1841},{&amp;quot;s&amp;quot;:1830,&amp;quot;n&amp;quot;:&amp;quot;t&amp;quot;,&amp;quot;v&amp;quot;:&amp;quot;ul&amp;quot;},{&amp;quot;s&amp;quot;:1830,&amp;quot;n&amp;quot;:&amp;quot;l&amp;quot;,&amp;quot;v&amp;quot;:&amp;quot;auto&amp;quot;},{&amp;quot;s&amp;quot;:1830,&amp;quot;n&amp;quot;:&amp;quot;il&amp;quot;,&amp;quot;v&amp;quot;:17.333333333333336},{&amp;quot;s&amp;quot;:1830,&amp;quot;n&amp;quot;:&amp;quot;fl&amp;quot;,&amp;quot;v&amp;quot;:17.333333333333336},{&amp;quot;s&amp;quot;:1830,&amp;quot;n&amp;quot;:&amp;quot;a&amp;quot;,&amp;quot;v&amp;quot;:&amp;quot;left&amp;quot;},{&amp;quot;s&amp;quot;:1901,&amp;quot;n&amp;quot;:&amp;quot;b&amp;quot;,&amp;quot;v&amp;quot;:true,&amp;quot;e&amp;quot;:1908},{&amp;quot;s&amp;quot;:1901,&amp;quot;n&amp;quot;:&amp;quot;t&amp;quot;,&amp;quot;v&amp;quot;:&amp;quot;ul&amp;quot;},{&amp;quot;s&amp;quot;:1901,&amp;quot;n&amp;quot;:&amp;quot;l&amp;quot;,&amp;quot;v&amp;quot;:&amp;quot;auto&amp;quot;},{&amp;quot;s&amp;quot;:1901,&amp;quot;n&amp;quot;:&amp;quot;il&amp;quot;,&amp;quot;v&amp;quot;:17.333333333333336},{&amp;quot;s&amp;quot;:1901,&amp;quot;n&amp;quot;:&amp;quot;fl&amp;quot;,&amp;quot;v&amp;quot;:17.333333333333336},{&amp;quot;s&amp;quot;:1901,&amp;quot;n&amp;quot;:&amp;quot;a&amp;quot;,&amp;quot;v&amp;quot;:&amp;quot;left&amp;quot;},{&amp;quot;s&amp;quot;:1961,&amp;quot;n&amp;quot;:&amp;quot;b&amp;quot;,&amp;quot;v&amp;quot;:true,&amp;quot;e&amp;quot;:1969},{&amp;quot;s&amp;quot;:1971,&amp;quot;n&amp;quot;:&amp;quot;b&amp;quot;,&amp;quot;v&amp;quot;:true,&amp;quot;e&amp;quot;:1979},{&amp;quot;s&amp;quot;:1961,&amp;quot;n&amp;quot;:&amp;quot;t&amp;quot;,&amp;quot;v&amp;quot;:&amp;quot;ul&amp;quot;},{&amp;quot;s&amp;quot;:1961,&amp;quot;n&amp;quot;:&amp;quot;l&amp;quot;,&amp;quot;v&amp;quot;:&amp;quot;auto&amp;quot;},{&amp;quot;s&amp;quot;:1961,&amp;quot;n&amp;quot;:&amp;quot;il&amp;quot;,&amp;quot;v&amp;quot;:17.333333333333336},{&amp;quot;s&amp;quot;:1961,&amp;quot;n&amp;quot;:&amp;quot;fl&amp;quot;,&amp;quot;v&amp;quot;:17.333333333333336},{&amp;quot;s&amp;quot;:1961,&amp;quot;n&amp;quot;:&amp;quot;a&amp;quot;,&amp;quot;v&amp;quot;:&amp;quot;left&amp;quot;},{&amp;quot;s&amp;quot;:1829,&amp;quot;n&amp;quot;:&amp;quot;s&amp;quot;,&amp;quot;v&amp;quot;:17.333333333333336,&amp;quot;e&amp;quot;:2028},{&amp;quot;s&amp;quot;:2028,&amp;quot;n&amp;quot;:&amp;quot;s&amp;quot;,&amp;quot;v&amp;quot;:20.28,&amp;quot;e&amp;quot;:2045},{&amp;quot;s&amp;quot;:2028,&amp;quot;n&amp;quot;:&amp;quot;b&amp;quot;,&amp;quot;v&amp;quot;:true,&amp;quot;e&amp;quot;:2045},{&amp;quot;s&amp;quot;:2046,&amp;quot;n&amp;quot;:&amp;quot;b&amp;quot;,&amp;quot;v&amp;quot;:true,&amp;quot;e&amp;quot;:2052},{&amp;quot;s&amp;quot;:2046,&amp;quot;n&amp;quot;:&amp;quot;t&amp;quot;,&amp;quot;v&amp;quot;:&amp;quot;ul&amp;quot;},{&amp;quot;s&amp;quot;:2046,&amp;quot;n&amp;quot;:&amp;quot;l&amp;quot;,&amp;quot;v&amp;quot;:&amp;quot;auto&amp;quot;},{&amp;quot;s&amp;quot;:2046,&amp;quot;n&amp;quot;:&amp;quot;il&amp;quot;,&amp;quot;v&amp;quot;:17.333333333333336},{&amp;quot;s&amp;quot;:2046,&amp;quot;n&amp;quot;:&amp;quot;fl&amp;quot;,&amp;quot;v&amp;quot;:17.333333333333336},{&amp;quot;s&amp;quot;:2046,&amp;quot;n&amp;quot;:&amp;quot;a&amp;quot;,&amp;quot;v&amp;quot;:&amp;quot;left&amp;quot;},{&amp;quot;s&amp;quot;:2100,&amp;quot;n&amp;quot;:&amp;quot;b&amp;quot;,&amp;quot;v&amp;quot;:true,&amp;quot;e&amp;quot;:2114},{&amp;quot;s&amp;quot;:2100,&amp;quot;n&amp;quot;:&amp;quot;t&amp;quot;,&amp;quot;v&amp;quot;:&amp;quot;ul&amp;quot;},{&amp;quot;s&amp;quot;:2100,&amp;quot;n&amp;quot;:&amp;quot;l&amp;quot;,&amp;quot;v&amp;quot;:&amp;quot;auto&amp;quot;},{&amp;quot;s&amp;quot;:2100,&amp;quot;n&amp;quot;:&amp;quot;il&amp;quot;,&amp;quot;v&amp;quot;:17.333333333333336},{&amp;quot;s&amp;quot;:2100,&amp;quot;n&amp;quot;:&amp;quot;fl&amp;quot;,&amp;quot;v&amp;quot;:17.333333333333336},{&amp;quot;s&amp;quot;:2100,&amp;quot;n&amp;quot;:&amp;quot;a&amp;quot;,&amp;quot;v&amp;quot;:&amp;quot;left&amp;quot;},{&amp;quot;s&amp;quot;:2156,&amp;quot;n&amp;quot;:&amp;quot;b&amp;quot;,&amp;quot;v&amp;quot;:true,&amp;quot;e&amp;quot;:2160},{&amp;quot;s&amp;quot;:2156,&amp;quot;n&amp;quot;:&amp;quot;t&amp;quot;,&amp;quot;v&amp;quot;:&amp;quot;ul&amp;quot;},{&amp;quot;s&amp;quot;:2156,&amp;quot;n&amp;quot;:&amp;quot;l&amp;quot;,&amp;quot;v&amp;quot;:&amp;quot;auto&amp;quot;},{&amp;quot;s&amp;quot;:2156,&amp;quot;n&amp;quot;:&amp;quot;il&amp;quot;,&amp;quot;v&amp;quot;:17.333333333333336},{&amp;quot;s&amp;quot;:2156,&amp;quot;n&amp;quot;:&amp;quot;fl&amp;quot;,&amp;quot;v&amp;quot;:17.333333333333336},{&amp;quot;s&amp;quot;:2156,&amp;quot;n&amp;quot;:&amp;quot;a&amp;quot;,&amp;quot;v&amp;quot;:&amp;quot;left&amp;quot;},{&amp;quot;s&amp;quot;:2188,&amp;quot;n&amp;quot;:&amp;quot;b&amp;quot;,&amp;quot;v&amp;quot;:true,&amp;quot;e&amp;quot;:2194},{&amp;quot;s&amp;quot;:2188,&amp;quot;n&amp;quot;:&amp;quot;t&amp;quot;,&amp;quot;v&amp;quot;:&amp;quot;ul&amp;quot;},{&amp;quot;s&amp;quot;:2188,&amp;quot;n&amp;quot;:&amp;quot;l&amp;quot;,&amp;quot;v&amp;quot;:&amp;quot;auto&amp;quot;},{&amp;quot;s&amp;quot;:2188,&amp;quot;n&amp;quot;:&amp;quot;il&amp;quot;,&amp;quot;v&amp;quot;:17.333333333333336},{&amp;quot;s&amp;quot;:2188,&amp;quot;n&amp;quot;:&amp;quot;fl&amp;quot;,&amp;quot;v&amp;quot;:17.333333333333336},{&amp;quot;s&amp;quot;:2188,&amp;quot;n&amp;quot;:&amp;quot;a&amp;quot;,&amp;quot;v&amp;quot;:&amp;quot;left&amp;quot;},{&amp;quot;s&amp;quot;:2045,&amp;quot;n&amp;quot;:&amp;quot;s&amp;quot;,&amp;quot;v&amp;quot;:17.333333333333336,&amp;quot;e&amp;quot;:2224},{&amp;quot;s&amp;quot;:2224,&amp;quot;n&amp;quot;:&amp;quot;s&amp;quot;,&amp;quot;v&amp;quot;:20.28,&amp;quot;e&amp;quot;:2243},{&amp;quot;s&amp;quot;:2224,&amp;quot;n&amp;quot;:&amp;quot;b&amp;quot;,&amp;quot;v&amp;quot;:true,&amp;quot;e&amp;quot;:2243},{&amp;quot;s&amp;quot;:2244,&amp;quot;n&amp;quot;:&amp;quot;b&amp;quot;,&amp;quot;v&amp;quot;:true,&amp;quot;e&amp;quot;:2251},{&amp;quot;s&amp;quot;:2244,&amp;quot;n&amp;quot;:&amp;quot;t&amp;quot;,&amp;quot;v&amp;quot;:&amp;quot;ul&amp;quot;},{&amp;quot;s&amp;quot;:2244,&amp;quot;n&amp;quot;:&amp;quot;l&amp;quot;,&amp;quot;v&amp;quot;:&amp;quot;auto&amp;quot;},{&amp;quot;s&amp;quot;:2244,&amp;quot;n&amp;quot;:&amp;quot;il&amp;quot;,&amp;quot;v&amp;quot;:17.333333333333336},{&amp;quot;s&amp;quot;:2244,&amp;quot;n&amp;quot;:&amp;quot;fl&amp;quot;,&amp;quot;v&amp;quot;:17.333333333333336},{&amp;quot;s&amp;quot;:2244,&amp;quot;n&amp;quot;:&amp;quot;a&amp;quot;,&amp;quot;v&amp;quot;:&amp;quot;left&amp;quot;},{&amp;quot;s&amp;quot;:2289,&amp;quot;n&amp;quot;:&amp;quot;b&amp;quot;,&amp;quot;v&amp;quot;:true,&amp;quot;e&amp;quot;:2293},{&amp;quot;s&amp;quot;:2289,&amp;quot;n&amp;quot;:&amp;quot;t&amp;quot;,&amp;quot;v&amp;quot;:&amp;quot;ul&amp;quot;},{&amp;quot;s&amp;quot;:2289,&amp;quot;n&amp;quot;:&amp;quot;l&amp;quot;,&amp;quot;v&amp;quot;:&amp;quot;auto&amp;quot;},{&amp;quot;s&amp;quot;:2289,&amp;quot;n&amp;quot;:&amp;quot;il&amp;quot;,&amp;quot;v&amp;quot;:17.333333333333336},{&amp;quot;s&amp;quot;:2289,&amp;quot;n&amp;quot;:&amp;quot;fl&amp;quot;,&amp;quot;v&amp;quot;:17.333333333333336},{&amp;quot;s&amp;quot;:2289,&amp;quot;n&amp;quot;:&amp;quot;a&amp;quot;,&amp;quot;v&amp;quot;:&amp;quot;left&amp;quot;},{&amp;quot;s&amp;quot;:2318,&amp;quot;n&amp;quot;:&amp;quot;b&amp;quot;,&amp;quot;v&amp;quot;:true,&amp;quot;e&amp;quot;:2332},{&amp;quot;s&amp;quot;:2318,&amp;quot;n&amp;quot;:&amp;quot;t&amp;quot;,&amp;quot;v&amp;quot;:&amp;quot;ul&amp;quot;},{&amp;quot;s&amp;quot;:2318,&amp;quot;n&amp;quot;:&amp;quot;l&amp;quot;,&amp;quot;v&amp;quot;:&amp;quot;auto&amp;quot;},{&amp;quot;s&amp;quot;:2318,&amp;quot;n&amp;quot;:&amp;quot;il&amp;quot;,&amp;quot;v&amp;quot;:17.333333333333336},{&amp;quot;s&amp;quot;:2318,&amp;quot;n&amp;quot;:&amp;quot;fl&amp;quot;,&amp;quot;v&amp;quot;:17.333333333333336},{&amp;quot;s&amp;quot;:2318,&amp;quot;n&amp;quot;:&amp;quot;a&amp;quot;,&amp;quot;v&amp;quot;:&amp;quot;left&amp;quot;},{&amp;quot;s&amp;quot;:2374,&amp;quot;n&amp;quot;:&amp;quot;b&amp;quot;,&amp;quot;v&amp;quot;:true,&amp;quot;e&amp;quot;:2384},{&amp;quot;s&amp;quot;:2374,&amp;quot;n&amp;quot;:&amp;quot;t&amp;quot;,&amp;quot;v&amp;quot;:&amp;quot;ul&amp;quot;},{&amp;quot;s&amp;quot;:2374,&amp;quot;n&amp;quot;:&amp;quot;l&amp;quot;,&amp;quot;v&amp;quot;:&amp;quot;auto&amp;quot;},{&amp;quot;s&amp;quot;:2374,&amp;quot;n&amp;quot;:&amp;quot;il&amp;quot;,&amp;quot;v&amp;quot;:17.333333333333336},{&amp;quot;s&amp;quot;:2374,&amp;quot;n&amp;quot;:&amp;quot;fl&amp;quot;,&amp;quot;v&amp;quot;:17.333333333333336},{&amp;quot;s&amp;quot;:2374,&amp;quot;n&amp;quot;:&amp;quot;a&amp;quot;,&amp;quot;v&amp;quot;:&amp;quot;left&amp;quot;},{&amp;quot;s&amp;quot;:2443,&amp;quot;n&amp;quot;:&amp;quot;b&amp;quot;,&amp;quot;v&amp;quot;:true,&amp;quot;e&amp;quot;:2453},{&amp;quot;s&amp;quot;:2455,&amp;quot;n&amp;quot;:&amp;quot;b&amp;quot;,&amp;quot;v&amp;quot;:true,&amp;quot;e&amp;quot;:2466},{&amp;quot;s&amp;quot;:2443,&amp;quot;n&amp;quot;:&amp;quot;t&amp;quot;,&amp;quot;v&amp;quot;:&amp;quot;ul&amp;quot;},{&amp;quot;s&amp;quot;:2443,&amp;quot;n&amp;quot;:&amp;quot;l&amp;quot;,&amp;quot;v&amp;quot;:&amp;quot;auto&amp;quot;},{&amp;quot;s&amp;quot;:2443,&amp;quot;n&amp;quot;:&amp;quot;il&amp;quot;,&amp;quot;v&amp;quot;:17.333333333333336},{&amp;quot;s&amp;quot;:2443,&amp;quot;n&amp;quot;:&amp;quot;fl&amp;quot;,&amp;quot;v&amp;quot;:17.333333333333336},{&amp;quot;s&amp;quot;:2443,&amp;quot;n&amp;quot;:&amp;quot;a&amp;quot;,&amp;quot;v&amp;quot;:&amp;quot;left&amp;quot;},{&amp;quot;s&amp;quot;:2243,&amp;quot;n&amp;quot;:&amp;quot;s&amp;quot;,&amp;quot;v&amp;quot;:17.333333333333336,&amp;quot;e&amp;quot;:2523},{&amp;quot;s&amp;quot;:2523,&amp;quot;n&amp;quot;:&amp;quot;s&amp;quot;,&amp;quot;v&amp;quot;:20.28,&amp;quot;e&amp;quot;:2549},{&amp;quot;s&amp;quot;:2523,&amp;quot;n&amp;quot;:&amp;quot;b&amp;quot;,&amp;quot;v&amp;quot;:true,&amp;quot;e&amp;quot;:2549},{&amp;quot;s&amp;quot;:2550,&amp;quot;n&amp;quot;:&amp;quot;b&amp;quot;,&amp;quot;v&amp;quot;:true,&amp;quot;e&amp;quot;:2559},{&amp;quot;s&amp;quot;:2550,&amp;quot;n&amp;quot;:&amp;quot;t&amp;quot;,&amp;quot;v&amp;quot;:&amp;quot;ul&amp;quot;},{&amp;quot;s&amp;quot;:2550,&amp;quot;n&amp;quot;:&amp;quot;l&amp;quot;,&amp;quot;v&amp;quot;:&amp;quot;auto&amp;quot;},{&amp;quot;s&amp;quot;:2550,&amp;quot;n&amp;quot;:&amp;quot;il&amp;quot;,&amp;quot;v&amp;quot;:17.333333333333336},{&amp;quot;s&amp;quot;:2550,&amp;quot;n&amp;quot;:&amp;quot;fl&amp;quot;,&amp;quot;v&amp;quot;:17.333333333333336},{&amp;quot;s&amp;quot;:2550,&amp;quot;n&amp;quot;:&amp;quot;a&amp;quot;,&amp;quot;v&amp;quot;:&amp;quot;left&amp;quot;},{&amp;quot;s&amp;quot;:2633,&amp;quot;n&amp;quot;:&amp;quot;b&amp;quot;,&amp;quot;v&amp;quot;:true,&amp;quot;e&amp;quot;:2642},{&amp;quot;s&amp;quot;:2633,&amp;quot;n&amp;quot;:&amp;quot;t&amp;quot;,&amp;quot;v&amp;quot;:&amp;quot;ul&amp;quot;},{&amp;quot;s&amp;quot;:2633,&amp;quot;n&amp;quot;:&amp;quot;l&amp;quot;,&amp;quot;v&amp;quot;:&amp;quot;auto&amp;quot;},{&amp;quot;s&amp;quot;:2633,&amp;quot;n&amp;quot;:&amp;quot;il&amp;quot;,&amp;quot;v&amp;quot;:17.333333333333336},{&amp;quot;s&amp;quot;:2633,&amp;quot;n&amp;quot;:&amp;quot;fl&amp;quot;,&amp;quot;v&amp;quot;:17.333333333333336},{&amp;quot;s&amp;quot;:2633,&amp;quot;n&amp;quot;:&amp;quot;a&amp;quot;,&amp;quot;v&amp;quot;:&amp;quot;left&amp;quot;},{&amp;quot;s&amp;quot;:2690,&amp;quot;n&amp;quot;:&amp;quot;b&amp;quot;,&amp;quot;v&amp;quot;:true,&amp;quot;e&amp;quot;:2701},{&amp;quot;s&amp;quot;:2690,&amp;quot;n&amp;quot;:&amp;quot;t&amp;quot;,&amp;quot;v&amp;quot;:&amp;quot;ul&amp;quot;},{&amp;quot;s&amp;quot;:2690,&amp;quot;n&amp;quot;:&amp;quot;l&amp;quot;,&amp;quot;v&amp;quot;:&amp;quot;auto&amp;quot;},{&amp;quot;s&amp;quot;:2690,&amp;quot;n&amp;quot;:&amp;quot;il&amp;quot;,&amp;quot;v&amp;quot;:17.333333333333336},{&amp;quot;s&amp;quot;:2690,&amp;quot;n&amp;quot;:&amp;quot;fl&amp;quot;,&amp;quot;v&amp;quot;:17.333333333333336},{&amp;quot;s&amp;quot;:2690,&amp;quot;n&amp;quot;:&amp;quot;a&amp;quot;,&amp;quot;v&amp;quot;:&amp;quot;left&amp;quot;},{&amp;quot;s&amp;quot;:2733,&amp;quot;n&amp;quot;:&amp;quot;b&amp;quot;,&amp;quot;v&amp;quot;:true,&amp;quot;e&amp;quot;:2737},{&amp;quot;s&amp;quot;:2733,&amp;quot;n&amp;quot;:&amp;quot;t&amp;quot;,&amp;quot;v&amp;quot;:&amp;quot;ul&amp;quot;},{&amp;quot;s&amp;quot;:2733,&amp;quot;n&amp;quot;:&amp;quot;l&amp;quot;,&amp;quot;v&amp;quot;:&amp;quot;auto&amp;quot;},{&amp;quot;s&amp;quot;:2733,&amp;quot;n&amp;quot;:&amp;quot;il&amp;quot;,&amp;quot;v&amp;quot;:17.333333333333336},{&amp;quot;s&amp;quot;:2733,&amp;quot;n&amp;quot;:&amp;quot;fl&amp;quot;,&amp;quot;v&amp;quot;:17.333333333333336},{&amp;quot;s&amp;quot;:2733,&amp;quot;n&amp;quot;:&amp;quot;a&amp;quot;,&amp;quot;v&amp;quot;:&amp;quot;left&amp;quot;},{&amp;quot;s&amp;quot;:2549,&amp;quot;n&amp;quot;:&amp;quot;s&amp;quot;,&amp;quot;v&amp;quot;:17.333333333333336,&amp;quot;e&amp;quot;:2796}]}&quot; data-lucid-type=&quot;application/vnd.lucid.text&quot;&gt;&lt;span style=&quot;font-weight:bold;font-size:15.21px;&quot;&gt;Courses&lt;/span&gt;&lt;span style=&quot;font-size:13.000000000000002px;&quot;&gt;&lt;/span&gt;&lt;/span&gt;" style="rounded=0;whiteSpace=wrap;html=1;" parent="1" vertex="1">
          <mxGeometry x="1009.3199999999999" y="1030" width="120" height="60" as="geometry" />
        </mxCell>
        <mxCell id="eIFraDozomn_EEBno7Bz-142" value="" style="edgeStyle=none;rounded=0;orthogonalLoop=1;jettySize=auto;html=1;strokeColor=default;align=center;verticalAlign=middle;fontFamily=Helvetica;fontSize=11;fontColor=default;labelBackgroundColor=default;endArrow=none;" parent="1" source="eIFraDozomn_EEBno7Bz-47" target="eIFraDozomn_EEBno7Bz-129" edge="1">
          <mxGeometry relative="1" as="geometry" />
        </mxCell>
        <mxCell id="eIFraDozomn_EEBno7Bz-47" value="Subscriber" style="rounded=0;whiteSpace=wrap;html=1;fontFamily=Helvetica;fontSize=11;fontColor=default;labelBackgroundColor=default;" parent="1" vertex="1">
          <mxGeometry x="160" y="1085" width="120" height="60" as="geometry" />
        </mxCell>
        <mxCell id="eIFraDozomn_EEBno7Bz-59" style="edgeStyle=none;rounded=0;orthogonalLoop=1;jettySize=auto;html=1;entryX=0.5;entryY=1;entryDx=0;entryDy=0;strokeColor=default;align=center;verticalAlign=middle;fontFamily=Helvetica;fontSize=11;fontColor=default;labelBackgroundColor=default;endArrow=none;" parent="1" source="eIFraDozomn_EEBno7Bz-48" target="eIFraDozomn_EEBno7Bz-2" edge="1">
          <mxGeometry relative="1" as="geometry" />
        </mxCell>
        <mxCell id="eIFraDozomn_EEBno7Bz-66" style="edgeStyle=none;rounded=0;orthogonalLoop=1;jettySize=auto;html=1;exitX=1;exitY=1;exitDx=0;exitDy=0;entryX=0.5;entryY=0;entryDx=0;entryDy=0;strokeColor=default;align=center;verticalAlign=middle;fontFamily=Helvetica;fontSize=11;fontColor=default;labelBackgroundColor=default;endArrow=none;" parent="1" source="eIFraDozomn_EEBno7Bz-48" target="eIFraDozomn_EEBno7Bz-65" edge="1">
          <mxGeometry relative="1" as="geometry" />
        </mxCell>
        <mxCell id="eIFraDozomn_EEBno7Bz-146" style="edgeStyle=none;rounded=0;orthogonalLoop=1;jettySize=auto;html=1;exitX=0.5;exitY=0;exitDx=0;exitDy=0;strokeColor=default;align=center;verticalAlign=middle;fontFamily=Helvetica;fontSize=11;fontColor=default;labelBackgroundColor=default;endArrow=none;" parent="1" source="eIFraDozomn_EEBno7Bz-48" target="eIFraDozomn_EEBno7Bz-85" edge="1">
          <mxGeometry relative="1" as="geometry" />
        </mxCell>
        <mxCell id="eIFraDozomn_EEBno7Bz-172" value="" style="edgeStyle=none;rounded=0;orthogonalLoop=1;jettySize=auto;html=1;strokeColor=default;align=center;verticalAlign=middle;fontFamily=Helvetica;fontSize=11;fontColor=default;labelBackgroundColor=default;endArrow=none;" parent="1" source="eIFraDozomn_EEBno7Bz-48" target="eIFraDozomn_EEBno7Bz-171" edge="1">
          <mxGeometry relative="1" as="geometry" />
        </mxCell>
        <mxCell id="eIFraDozomn_EEBno7Bz-173" value="" style="edgeStyle=none;rounded=0;orthogonalLoop=1;jettySize=auto;html=1;strokeColor=default;align=center;verticalAlign=middle;fontFamily=Helvetica;fontSize=11;fontColor=default;labelBackgroundColor=default;endArrow=none;" parent="1" source="eIFraDozomn_EEBno7Bz-48" target="eIFraDozomn_EEBno7Bz-171" edge="1">
          <mxGeometry relative="1" as="geometry" />
        </mxCell>
        <mxCell id="eIFraDozomn_EEBno7Bz-174" style="edgeStyle=none;rounded=0;orthogonalLoop=1;jettySize=auto;html=1;strokeColor=default;align=center;verticalAlign=middle;fontFamily=Helvetica;fontSize=11;fontColor=default;labelBackgroundColor=default;endArrow=none;" parent="1" source="eIFraDozomn_EEBno7Bz-48" target="eIFraDozomn_EEBno7Bz-170" edge="1">
          <mxGeometry relative="1" as="geometry" />
        </mxCell>
        <mxCell id="eIFraDozomn_EEBno7Bz-190" style="edgeStyle=none;rounded=0;orthogonalLoop=1;jettySize=auto;html=1;strokeColor=default;align=center;verticalAlign=middle;fontFamily=Helvetica;fontSize=11;fontColor=default;labelBackgroundColor=default;endArrow=none;" parent="1" source="eIFraDozomn_EEBno7Bz-48" target="eIFraDozomn_EEBno7Bz-60" edge="1">
          <mxGeometry relative="1" as="geometry" />
        </mxCell>
        <mxCell id="eIFraDozomn_EEBno7Bz-48" value="Learner" style="rounded=0;whiteSpace=wrap;html=1;fontFamily=Helvetica;fontSize=11;fontColor=default;labelBackgroundColor=default;" parent="1" vertex="1">
          <mxGeometry x="615" y="1200" width="120" height="60" as="geometry" />
        </mxCell>
        <mxCell id="eIFraDozomn_EEBno7Bz-147" style="edgeStyle=none;rounded=0;orthogonalLoop=1;jettySize=auto;html=1;exitX=1;exitY=1;exitDx=0;exitDy=0;strokeColor=default;align=center;verticalAlign=middle;fontFamily=Helvetica;fontSize=11;fontColor=default;labelBackgroundColor=default;endArrow=none;" parent="1" source="eIFraDozomn_EEBno7Bz-50" target="eIFraDozomn_EEBno7Bz-85" edge="1">
          <mxGeometry relative="1" as="geometry" />
        </mxCell>
        <mxCell id="eIFraDozomn_EEBno7Bz-189" style="edgeStyle=none;rounded=0;orthogonalLoop=1;jettySize=auto;html=1;strokeColor=default;align=center;verticalAlign=middle;fontFamily=Helvetica;fontSize=11;fontColor=default;labelBackgroundColor=default;endArrow=none;" parent="1" source="eIFraDozomn_EEBno7Bz-50" target="eIFraDozomn_EEBno7Bz-2" edge="1">
          <mxGeometry relative="1" as="geometry" />
        </mxCell>
        <mxCell id="W_H0yqYWWGtz6BWtwu7v-6" value="" style="edgeStyle=none;rounded=0;orthogonalLoop=1;jettySize=auto;html=1;strokeColor=default;align=center;verticalAlign=middle;fontFamily=Helvetica;fontSize=11;fontColor=default;labelBackgroundColor=default;endArrow=none;" parent="1" source="eIFraDozomn_EEBno7Bz-50" target="eIFraDozomn_EEBno7Bz-176" edge="1">
          <mxGeometry relative="1" as="geometry" />
        </mxCell>
        <mxCell id="W_H0yqYWWGtz6BWtwu7v-7" value="" style="edgeStyle=none;rounded=0;orthogonalLoop=1;jettySize=auto;html=1;strokeColor=default;align=center;verticalAlign=middle;fontFamily=Helvetica;fontSize=11;fontColor=default;labelBackgroundColor=default;endArrow=none;" parent="1" source="eIFraDozomn_EEBno7Bz-50" target="eIFraDozomn_EEBno7Bz-176" edge="1">
          <mxGeometry relative="1" as="geometry" />
        </mxCell>
        <mxCell id="W_H0yqYWWGtz6BWtwu7v-8" style="edgeStyle=none;rounded=0;orthogonalLoop=1;jettySize=auto;html=1;entryX=0;entryY=0.5;entryDx=0;entryDy=0;strokeColor=default;align=center;verticalAlign=middle;fontFamily=Helvetica;fontSize=11;fontColor=default;labelBackgroundColor=default;endArrow=none;" parent="1" source="eIFraDozomn_EEBno7Bz-50" target="eIFraDozomn_EEBno7Bz-175" edge="1">
          <mxGeometry relative="1" as="geometry" />
        </mxCell>
        <mxCell id="W_H0yqYWWGtz6BWtwu7v-9" style="edgeStyle=none;rounded=0;orthogonalLoop=1;jettySize=auto;html=1;entryX=0;entryY=0.5;entryDx=0;entryDy=0;strokeColor=default;align=center;verticalAlign=middle;fontFamily=Helvetica;fontSize=11;fontColor=default;labelBackgroundColor=default;endArrow=none;" parent="1" source="eIFraDozomn_EEBno7Bz-50" target="eIFraDozomn_EEBno7Bz-167" edge="1">
          <mxGeometry relative="1" as="geometry" />
        </mxCell>
        <mxCell id="W_H0yqYWWGtz6BWtwu7v-10" style="edgeStyle=none;rounded=0;orthogonalLoop=1;jettySize=auto;html=1;entryX=0;entryY=0.5;entryDx=0;entryDy=0;strokeColor=default;align=center;verticalAlign=middle;fontFamily=Helvetica;fontSize=11;fontColor=default;labelBackgroundColor=default;endArrow=none;" parent="1" source="eIFraDozomn_EEBno7Bz-50" target="eIFraDozomn_EEBno7Bz-168" edge="1">
          <mxGeometry relative="1" as="geometry" />
        </mxCell>
        <mxCell id="W_H0yqYWWGtz6BWtwu7v-11" style="edgeStyle=none;rounded=0;orthogonalLoop=1;jettySize=auto;html=1;entryX=0;entryY=0.5;entryDx=0;entryDy=0;strokeColor=default;align=center;verticalAlign=middle;fontFamily=Helvetica;fontSize=11;fontColor=default;labelBackgroundColor=default;endArrow=none;" parent="1" source="eIFraDozomn_EEBno7Bz-50" target="eIFraDozomn_EEBno7Bz-169" edge="1">
          <mxGeometry relative="1" as="geometry" />
        </mxCell>
        <mxCell id="eIFraDozomn_EEBno7Bz-50" value="Teacher" style="rounded=0;whiteSpace=wrap;html=1;fontFamily=Helvetica;fontSize=11;fontColor=default;labelBackgroundColor=default;" parent="1" vertex="1">
          <mxGeometry x="600" y="1030" width="120" height="60" as="geometry" />
        </mxCell>
        <mxCell id="eIFraDozomn_EEBno7Bz-72" value="" style="edgeStyle=none;rounded=0;orthogonalLoop=1;jettySize=auto;html=1;strokeColor=default;align=center;verticalAlign=middle;fontFamily=Helvetica;fontSize=11;fontColor=default;labelBackgroundColor=default;endArrow=none;" parent="1" source="eIFraDozomn_EEBno7Bz-60" target="eIFraDozomn_EEBno7Bz-63" edge="1">
          <mxGeometry relative="1" as="geometry" />
        </mxCell>
        <mxCell id="eIFraDozomn_EEBno7Bz-73" style="edgeStyle=none;rounded=0;orthogonalLoop=1;jettySize=auto;html=1;exitX=1;exitY=1;exitDx=0;exitDy=0;entryX=0;entryY=0;entryDx=0;entryDy=0;strokeColor=default;align=center;verticalAlign=middle;fontFamily=Helvetica;fontSize=11;fontColor=default;labelBackgroundColor=default;endArrow=none;" parent="1" source="eIFraDozomn_EEBno7Bz-60" target="eIFraDozomn_EEBno7Bz-62" edge="1">
          <mxGeometry relative="1" as="geometry" />
        </mxCell>
        <mxCell id="W_H0yqYWWGtz6BWtwu7v-13" style="edgeStyle=none;rounded=0;orthogonalLoop=1;jettySize=auto;html=1;strokeColor=default;align=center;verticalAlign=middle;fontFamily=Helvetica;fontSize=11;fontColor=default;labelBackgroundColor=default;endArrow=none;" parent="1" source="eIFraDozomn_EEBno7Bz-60" target="eIFraDozomn_EEBno7Bz-114" edge="1">
          <mxGeometry relative="1" as="geometry" />
        </mxCell>
        <mxCell id="W_H0yqYWWGtz6BWtwu7v-16" value="" style="edgeStyle=none;rounded=0;orthogonalLoop=1;jettySize=auto;html=1;strokeColor=default;align=center;verticalAlign=middle;fontFamily=Helvetica;fontSize=11;fontColor=default;labelBackgroundColor=default;endArrow=none;" parent="1" source="eIFraDozomn_EEBno7Bz-60" target="W_H0yqYWWGtz6BWtwu7v-14" edge="1">
          <mxGeometry relative="1" as="geometry" />
        </mxCell>
        <mxCell id="eIFraDozomn_EEBno7Bz-60" value="Milestones" style="rounded=0;whiteSpace=wrap;html=1;fontFamily=Helvetica;fontSize=11;fontColor=default;labelBackgroundColor=default;" parent="1" vertex="1">
          <mxGeometry x="1270" y="1200" width="120" height="60" as="geometry" />
        </mxCell>
        <mxCell id="eIFraDozomn_EEBno7Bz-62" value="Assignments" style="rounded=0;whiteSpace=wrap;html=1;fontFamily=Helvetica;fontSize=11;fontColor=default;labelBackgroundColor=default;" parent="1" vertex="1">
          <mxGeometry x="1460" y="1330" width="120" height="60" as="geometry" />
        </mxCell>
        <mxCell id="W_H0yqYWWGtz6BWtwu7v-27" value="" style="edgeStyle=none;rounded=0;orthogonalLoop=1;jettySize=auto;html=1;strokeColor=default;align=center;verticalAlign=middle;fontFamily=Helvetica;fontSize=11;fontColor=default;labelBackgroundColor=default;endArrow=none;" parent="1" source="eIFraDozomn_EEBno7Bz-63" target="W_H0yqYWWGtz6BWtwu7v-25" edge="1">
          <mxGeometry relative="1" as="geometry" />
        </mxCell>
        <mxCell id="eIFraDozomn_EEBno7Bz-63" value="Exams" style="rounded=0;whiteSpace=wrap;html=1;fontFamily=Helvetica;fontSize=11;fontColor=default;labelBackgroundColor=default;" parent="1" vertex="1">
          <mxGeometry x="1460" y="1190" width="120" height="60" as="geometry" />
        </mxCell>
        <mxCell id="W_H0yqYWWGtz6BWtwu7v-21" style="edgeStyle=none;rounded=0;orthogonalLoop=1;jettySize=auto;html=1;strokeColor=default;align=center;verticalAlign=middle;fontFamily=Helvetica;fontSize=11;fontColor=default;labelBackgroundColor=default;endArrow=none;" parent="1" source="eIFraDozomn_EEBno7Bz-65" target="W_H0yqYWWGtz6BWtwu7v-18" edge="1">
          <mxGeometry relative="1" as="geometry" />
        </mxCell>
        <mxCell id="W_H0yqYWWGtz6BWtwu7v-22" style="edgeStyle=none;rounded=0;orthogonalLoop=1;jettySize=auto;html=1;strokeColor=default;align=center;verticalAlign=middle;fontFamily=Helvetica;fontSize=11;fontColor=default;labelBackgroundColor=default;endArrow=none;" parent="1" source="eIFraDozomn_EEBno7Bz-65" target="W_H0yqYWWGtz6BWtwu7v-17" edge="1">
          <mxGeometry relative="1" as="geometry" />
        </mxCell>
        <mxCell id="eIFraDozomn_EEBno7Bz-65" value="Squad" style="rounded=0;whiteSpace=wrap;html=1;fontFamily=Helvetica;fontSize=11;fontColor=default;labelBackgroundColor=default;" parent="1" vertex="1">
          <mxGeometry x="820" y="1294.99" width="120" height="60" as="geometry" />
        </mxCell>
        <mxCell id="eIFraDozomn_EEBno7Bz-84" style="edgeStyle=none;rounded=0;orthogonalLoop=1;jettySize=auto;html=1;exitX=0.75;exitY=1;exitDx=0;exitDy=0;strokeColor=default;align=center;verticalAlign=middle;fontFamily=Helvetica;fontSize=11;fontColor=default;labelBackgroundColor=default;endArrow=none;" parent="1" source="eIFraDozomn_EEBno7Bz-47" target="eIFraDozomn_EEBno7Bz-47" edge="1">
          <mxGeometry relative="1" as="geometry" />
        </mxCell>
        <mxCell id="eIFraDozomn_EEBno7Bz-85" value="&lt;div&gt;Reveiw&lt;/div&gt;" style="rhombus;whiteSpace=wrap;html=1;fontFamily=Helvetica;fontSize=11;fontColor=default;labelBackgroundColor=default;" parent="1" vertex="1">
          <mxGeometry x="710" y="1105.01" width="140" height="60" as="geometry" />
        </mxCell>
        <mxCell id="eIFraDozomn_EEBno7Bz-94" value="ID" style="ellipse;whiteSpace=wrap;html=1;fontFamily=Helvetica;fontSize=11;fontColor=default;labelBackgroundColor=default;rotation=-15;" parent="1" vertex="1">
          <mxGeometry x="870" y="795.1800000000001" width="110" height="40" as="geometry" />
        </mxCell>
        <mxCell id="eIFraDozomn_EEBno7Bz-96" style="edgeStyle=none;rounded=0;orthogonalLoop=1;jettySize=auto;html=1;exitX=0;exitY=0;exitDx=0;exitDy=0;entryX=0;entryY=0.25;entryDx=0;entryDy=0;strokeColor=default;align=center;verticalAlign=middle;fontFamily=Helvetica;fontSize=11;fontColor=default;labelBackgroundColor=default;endArrow=none;" parent="1" source="eIFraDozomn_EEBno7Bz-1" target="eIFraDozomn_EEBno7Bz-1" edge="1">
          <mxGeometry relative="1" as="geometry" />
        </mxCell>
        <mxCell id="eIFraDozomn_EEBno7Bz-97" value="Name" style="ellipse;whiteSpace=wrap;html=1;fontFamily=Helvetica;fontSize=11;fontColor=default;labelBackgroundColor=default;rotation=-15;" parent="1" vertex="1">
          <mxGeometry x="896" y="835.1800000000001" width="110" height="40" as="geometry" />
        </mxCell>
        <mxCell id="eIFraDozomn_EEBno7Bz-98" value="NumberOfNativeSpeakres" style="ellipse;whiteSpace=wrap;html=1;fontFamily=Helvetica;fontSize=11;fontColor=default;labelBackgroundColor=default;rotation=-15;" parent="1" vertex="1">
          <mxGeometry x="915.3199999999999" y="870" width="150" height="40" as="geometry" />
        </mxCell>
        <mxCell id="eIFraDozomn_EEBno7Bz-104" value="Name" style="ellipse;whiteSpace=wrap;html=1;fontFamily=Helvetica;fontSize=11;fontColor=default;labelBackgroundColor=default;rotation=-15;" parent="1" vertex="1">
          <mxGeometry x="1185.0023013479492" y="870.00356400642" width="110" height="40" as="geometry" />
        </mxCell>
        <mxCell id="eIFraDozomn_EEBno7Bz-106" value="DifficultyLevel" style="ellipse;whiteSpace=wrap;html=1;fontFamily=Helvetica;fontSize=11;fontColor=default;labelBackgroundColor=default;rotation=-15;" parent="1" vertex="1">
          <mxGeometry x="1240.0023013479492" y="950.00356400642" width="110" height="40" as="geometry" />
        </mxCell>
        <mxCell id="eIFraDozomn_EEBno7Bz-113" style="edgeStyle=none;rounded=0;orthogonalLoop=1;jettySize=auto;html=1;exitX=0;exitY=1;exitDx=0;exitDy=0;strokeColor=default;align=center;verticalAlign=middle;fontFamily=Helvetica;fontSize=11;fontColor=default;labelBackgroundColor=default;endArrow=none;" parent="1" source="eIFraDozomn_EEBno7Bz-107" target="eIFraDozomn_EEBno7Bz-2" edge="1">
          <mxGeometry relative="1" as="geometry" />
        </mxCell>
        <mxCell id="eIFraDozomn_EEBno7Bz-107" value="ID" style="ellipse;whiteSpace=wrap;html=1;fontFamily=Helvetica;fontSize=11;fontColor=default;labelBackgroundColor=default;rotation=-15;" parent="1" vertex="1">
          <mxGeometry x="1149.3223013479492" y="830.00356400642" width="110" height="40" as="geometry" />
        </mxCell>
        <mxCell id="eIFraDozomn_EEBno7Bz-108" value="StartDate" style="ellipse;whiteSpace=wrap;html=1;fontFamily=Helvetica;fontSize=11;fontColor=default;labelBackgroundColor=default;rotation=-15;" parent="1" vertex="1">
          <mxGeometry x="1220.0023013479492" y="910.00356400642" width="110" height="40" as="geometry" />
        </mxCell>
        <mxCell id="eIFraDozomn_EEBno7Bz-114" value="Credits" style="ellipse;whiteSpace=wrap;html=1;fontFamily=Helvetica;fontSize=11;fontColor=default;labelBackgroundColor=default;rotation=-15;" parent="1" vertex="1">
          <mxGeometry x="1370.0023013479492" y="1125.00356400642" width="110" height="40" as="geometry" />
        </mxCell>
        <mxCell id="eIFraDozomn_EEBno7Bz-143" value="" style="edgeStyle=none;rounded=0;orthogonalLoop=1;jettySize=auto;html=1;strokeColor=default;align=center;verticalAlign=middle;fontFamily=Helvetica;fontSize=11;fontColor=default;labelBackgroundColor=default;endArrow=none;" parent="1" source="eIFraDozomn_EEBno7Bz-126" target="eIFraDozomn_EEBno7Bz-47" edge="1">
          <mxGeometry relative="1" as="geometry" />
        </mxCell>
        <mxCell id="eIFraDozomn_EEBno7Bz-126" value="Username" style="ellipse;whiteSpace=wrap;html=1;fontFamily=Helvetica;fontSize=11;fontColor=default;labelBackgroundColor=default;rotation=15;" parent="1" vertex="1">
          <mxGeometry x="-30" y="1065" width="110" height="40.01" as="geometry" />
        </mxCell>
        <mxCell id="eIFraDozomn_EEBno7Bz-145" style="edgeStyle=none;rounded=0;orthogonalLoop=1;jettySize=auto;html=1;exitX=1;exitY=0.5;exitDx=0;exitDy=0;strokeColor=default;align=center;verticalAlign=middle;fontFamily=Helvetica;fontSize=11;fontColor=default;labelBackgroundColor=default;endArrow=none;" parent="1" source="eIFraDozomn_EEBno7Bz-127" target="eIFraDozomn_EEBno7Bz-47" edge="1">
          <mxGeometry relative="1" as="geometry" />
        </mxCell>
        <mxCell id="eIFraDozomn_EEBno7Bz-127" value="ID" style="ellipse;whiteSpace=wrap;html=1;fontFamily=Helvetica;fontSize=11;fontColor=default;labelBackgroundColor=default;rotation=15;" parent="1" vertex="1">
          <mxGeometry x="-29.997698652050758" y="965.00356400642" width="110" height="40" as="geometry" />
        </mxCell>
        <mxCell id="eIFraDozomn_EEBno7Bz-144" style="edgeStyle=none;rounded=0;orthogonalLoop=1;jettySize=auto;html=1;exitX=1;exitY=0.5;exitDx=0;exitDy=0;strokeColor=default;align=center;verticalAlign=middle;fontFamily=Helvetica;fontSize=11;fontColor=default;labelBackgroundColor=default;endArrow=none;" parent="1" source="eIFraDozomn_EEBno7Bz-128" target="eIFraDozomn_EEBno7Bz-47" edge="1">
          <mxGeometry relative="1" as="geometry" />
        </mxCell>
        <mxCell id="eIFraDozomn_EEBno7Bz-128" value="Name" style="ellipse;whiteSpace=wrap;html=1;fontFamily=Helvetica;fontSize=11;fontColor=default;labelBackgroundColor=default;rotation=15;" parent="1" vertex="1">
          <mxGeometry x="-29.997698652050758" y="1015.00356400642" width="110" height="40" as="geometry" />
        </mxCell>
        <mxCell id="eIFraDozomn_EEBno7Bz-129" value="Email" style="ellipse;whiteSpace=wrap;html=1;fontFamily=Helvetica;fontSize=11;fontColor=default;labelBackgroundColor=default;rotation=15;" parent="1" vertex="1">
          <mxGeometry x="-39.99769865205076" y="1115.00356400642" width="110" height="40" as="geometry" />
        </mxCell>
        <mxCell id="eIFraDozomn_EEBno7Bz-167" value="Bank" style="ellipse;whiteSpace=wrap;html=1;fontFamily=Helvetica;fontSize=11;fontColor=default;labelBackgroundColor=default;rotation=-15;" parent="1" vertex="1">
          <mxGeometry x="659.3223013479492" y="870.00356400642" width="110" height="40" as="geometry" />
        </mxCell>
        <mxCell id="eIFraDozomn_EEBno7Bz-168" value="OfficeHours" style="ellipse;whiteSpace=wrap;html=1;fontFamily=Helvetica;fontSize=11;fontColor=default;labelBackgroundColor=default;rotation=-15;" parent="1" vertex="1">
          <mxGeometry x="640.0023013479492" y="830.00356400642" width="110" height="40" as="geometry" />
        </mxCell>
        <mxCell id="eIFraDozomn_EEBno7Bz-169" value="PhoneNumber" style="ellipse;whiteSpace=wrap;html=1;fontFamily=Helvetica;fontSize=11;fontColor=default;labelBackgroundColor=default;rotation=-15;" parent="1" vertex="1">
          <mxGeometry x="620.0023013479492" y="790.00356400642" width="110" height="40" as="geometry" />
        </mxCell>
        <mxCell id="eIFraDozomn_EEBno7Bz-170" value="XP" style="ellipse;whiteSpace=wrap;html=1;fontFamily=Helvetica;fontSize=11;fontColor=default;labelBackgroundColor=default;rotation=-15;" parent="1" vertex="1">
          <mxGeometry x="495.6823013479492" y="1260.00356400642" width="110" height="40" as="geometry" />
        </mxCell>
        <mxCell id="eIFraDozomn_EEBno7Bz-171" value="LastLoginDate" style="ellipse;whiteSpace=wrap;html=1;fontFamily=Helvetica;fontSize=11;fontColor=default;labelBackgroundColor=default;rotation=-15;" parent="1" vertex="1">
          <mxGeometry x="460.0023013479492" y="1220.00356400642" width="110" height="40" as="geometry" />
        </mxCell>
        <mxCell id="eIFraDozomn_EEBno7Bz-175" value="Ledgaer" style="ellipse;whiteSpace=wrap;html=1;fontFamily=Helvetica;fontSize=11;fontColor=default;labelBackgroundColor=default;rotation=-15;" parent="1" vertex="1">
          <mxGeometry x="673.3023013479492" y="910.00356400642" width="110" height="40" as="geometry" />
        </mxCell>
        <mxCell id="eIFraDozomn_EEBno7Bz-176" value="Bank" style="ellipse;whiteSpace=wrap;html=1;fontFamily=Helvetica;fontSize=11;fontColor=default;labelBackgroundColor=default;rotation=-15;" parent="1" vertex="1">
          <mxGeometry x="685" y="950" width="110" height="40" as="geometry" />
        </mxCell>
        <mxCell id="eIFraDozomn_EEBno7Bz-179" style="edgeStyle=none;rounded=0;orthogonalLoop=1;jettySize=auto;html=1;strokeColor=default;align=center;verticalAlign=middle;fontFamily=Helvetica;fontSize=11;fontColor=default;labelBackgroundColor=default;endArrow=none;" parent="1" source="eIFraDozomn_EEBno7Bz-183" target="eIFraDozomn_EEBno7Bz-50" edge="1">
          <mxGeometry relative="1" as="geometry" />
        </mxCell>
        <mxCell id="eIFraDozomn_EEBno7Bz-180" style="edgeStyle=none;rounded=0;orthogonalLoop=1;jettySize=auto;html=1;exitX=1;exitY=0.5;exitDx=0;exitDy=0;strokeColor=default;align=center;verticalAlign=middle;fontFamily=Helvetica;fontSize=11;fontColor=default;labelBackgroundColor=default;endArrow=none;exitPerimeter=0;" parent="1" source="eIFraDozomn_EEBno7Bz-185" target="eIFraDozomn_EEBno7Bz-48" edge="1">
          <mxGeometry relative="1" as="geometry" />
        </mxCell>
        <mxCell id="eIFraDozomn_EEBno7Bz-181" style="edgeStyle=none;rounded=0;orthogonalLoop=1;jettySize=auto;html=1;strokeColor=default;align=center;verticalAlign=middle;fontFamily=Helvetica;fontSize=11;fontColor=default;labelBackgroundColor=default;endArrow=none;" parent="1" source="eIFraDozomn_EEBno7Bz-178" target="eIFraDozomn_EEBno7Bz-47" edge="1">
          <mxGeometry relative="1" as="geometry" />
        </mxCell>
        <mxCell id="eIFraDozomn_EEBno7Bz-178" value="" style="ellipse;whiteSpace=wrap;html=1;fontFamily=Helvetica;fontSize=11;fontColor=default;labelBackgroundColor=default;" parent="1" vertex="1">
          <mxGeometry x="393" y="1085" width="85" height="85" as="geometry" />
        </mxCell>
        <mxCell id="eIFraDozomn_EEBno7Bz-182" value="" style="edgeStyle=none;rounded=0;orthogonalLoop=1;jettySize=auto;html=1;exitX=1;exitY=0;exitDx=0;exitDy=0;strokeColor=default;align=center;verticalAlign=middle;fontFamily=Helvetica;fontSize=11;fontColor=default;labelBackgroundColor=default;endArrow=none;entryX=1;entryY=0.5;entryDx=0;entryDy=0;entryPerimeter=0;" parent="1" source="eIFraDozomn_EEBno7Bz-178" target="eIFraDozomn_EEBno7Bz-183" edge="1">
          <mxGeometry relative="1" as="geometry">
            <mxPoint x="466" y="1097" as="sourcePoint" />
            <mxPoint x="600" y="1072" as="targetPoint" />
          </mxGeometry>
        </mxCell>
        <mxCell id="eIFraDozomn_EEBno7Bz-183" value="" style="shape=requiredInterface;html=1;verticalLabelPosition=bottom;sketch=0;fontFamily=Helvetica;fontSize=11;fontColor=default;labelBackgroundColor=default;rotation=-15;" parent="1" vertex="1">
          <mxGeometry x="525" y="1075" width="10" height="20" as="geometry" />
        </mxCell>
        <mxCell id="eIFraDozomn_EEBno7Bz-184" value="" style="edgeStyle=none;rounded=0;orthogonalLoop=1;jettySize=auto;html=1;exitX=1;exitY=1;exitDx=0;exitDy=0;strokeColor=default;align=center;verticalAlign=middle;fontFamily=Helvetica;fontSize=11;fontColor=default;labelBackgroundColor=default;endArrow=none;entryX=1;entryY=0.5;entryDx=0;entryDy=0;entryPerimeter=0;" parent="1" source="eIFraDozomn_EEBno7Bz-178" target="eIFraDozomn_EEBno7Bz-185" edge="1">
          <mxGeometry relative="1" as="geometry">
            <mxPoint x="466" y="1158" as="sourcePoint" />
            <mxPoint x="530" y="1178" as="targetPoint" />
          </mxGeometry>
        </mxCell>
        <mxCell id="eIFraDozomn_EEBno7Bz-185" value="" style="shape=requiredInterface;html=1;verticalLabelPosition=bottom;sketch=0;fontFamily=Helvetica;fontSize=11;fontColor=default;labelBackgroundColor=default;rotation=20;" parent="1" vertex="1">
          <mxGeometry x="530" y="1170" width="10" height="20" as="geometry" />
        </mxCell>
        <mxCell id="W_H0yqYWWGtz6BWtwu7v-12" value="LanguageID" style="ellipse;whiteSpace=wrap;html=1;fontFamily=Helvetica;fontSize=11;fontColor=default;labelBackgroundColor=default;rotation=-15;" parent="1" vertex="1">
          <mxGeometry x="1269.3223013479492" y="1000.00356400642" width="110" height="40" as="geometry" />
        </mxCell>
        <mxCell id="W_H0yqYWWGtz6BWtwu7v-14" value="ID" style="ellipse;whiteSpace=wrap;html=1;fontFamily=Helvetica;fontSize=11;fontColor=default;labelBackgroundColor=default;rotation=-15;" parent="1" vertex="1">
          <mxGeometry x="1320.0023013479492" y="1085.00356400642" width="110" height="40" as="geometry" />
        </mxCell>
        <mxCell id="W_H0yqYWWGtz6BWtwu7v-17" value="ID" style="ellipse;whiteSpace=wrap;html=1;fontFamily=Helvetica;fontSize=11;fontColor=default;labelBackgroundColor=default;rotation=-15;" parent="1" vertex="1">
          <mxGeometry x="976.7023013479493" y="1259.99356400642" width="110" height="40" as="geometry" />
        </mxCell>
        <mxCell id="W_H0yqYWWGtz6BWtwu7v-18" value="Naame" style="ellipse;whiteSpace=wrap;html=1;fontFamily=Helvetica;fontSize=11;fontColor=default;labelBackgroundColor=default;rotation=-15;" parent="1" vertex="1">
          <mxGeometry x="983.4023013479492" y="1304.99356400642" width="110" height="40" as="geometry" />
        </mxCell>
        <mxCell id="W_H0yqYWWGtz6BWtwu7v-20" value="" style="edgeStyle=none;rounded=0;orthogonalLoop=1;jettySize=auto;html=1;strokeColor=default;align=center;verticalAlign=middle;fontFamily=Helvetica;fontSize=11;fontColor=default;labelBackgroundColor=default;endArrow=none;" parent="1" source="W_H0yqYWWGtz6BWtwu7v-19" target="eIFraDozomn_EEBno7Bz-65" edge="1">
          <mxGeometry relative="1" as="geometry" />
        </mxCell>
        <mxCell id="W_H0yqYWWGtz6BWtwu7v-19" value="Adress" style="ellipse;whiteSpace=wrap;html=1;fontFamily=Helvetica;fontSize=11;fontColor=default;labelBackgroundColor=default;rotation=-15;" parent="1" vertex="1">
          <mxGeometry x="993.4023013479492" y="1344.99356400642" width="110" height="40" as="geometry" />
        </mxCell>
        <mxCell id="W_H0yqYWWGtz6BWtwu7v-23" value="ID" style="ellipse;whiteSpace=wrap;html=1;fontFamily=Helvetica;fontSize=11;fontColor=default;labelBackgroundColor=default;rotation=-15;" parent="1" vertex="1">
          <mxGeometry x="1500.0023013479492" y="990.00356400642" width="110" height="40" as="geometry" />
        </mxCell>
        <mxCell id="W_H0yqYWWGtz6BWtwu7v-30" style="edgeStyle=none;rounded=0;orthogonalLoop=1;jettySize=auto;html=1;entryX=0.5;entryY=0;entryDx=0;entryDy=0;strokeColor=default;align=center;verticalAlign=middle;fontFamily=Helvetica;fontSize=11;fontColor=default;labelBackgroundColor=default;endArrow=none;" parent="1" source="W_H0yqYWWGtz6BWtwu7v-24" target="eIFraDozomn_EEBno7Bz-63" edge="1">
          <mxGeometry relative="1" as="geometry" />
        </mxCell>
        <mxCell id="W_H0yqYWWGtz6BWtwu7v-31" style="edgeStyle=none;rounded=0;orthogonalLoop=1;jettySize=auto;html=1;entryX=0.25;entryY=0;entryDx=0;entryDy=0;strokeColor=default;align=center;verticalAlign=middle;fontFamily=Helvetica;fontSize=11;fontColor=default;labelBackgroundColor=default;endArrow=none;" parent="1" source="W_H0yqYWWGtz6BWtwu7v-24" target="eIFraDozomn_EEBno7Bz-63" edge="1">
          <mxGeometry relative="1" as="geometry" />
        </mxCell>
        <mxCell id="W_H0yqYWWGtz6BWtwu7v-24" value="QuestionNum" style="ellipse;whiteSpace=wrap;html=1;fontFamily=Helvetica;fontSize=11;fontColor=default;labelBackgroundColor=default;rotation=-15;" parent="1" vertex="1">
          <mxGeometry x="1530.0023013479492" y="1030.00356400642" width="110" height="40" as="geometry" />
        </mxCell>
        <mxCell id="W_H0yqYWWGtz6BWtwu7v-29" style="edgeStyle=none;rounded=0;orthogonalLoop=1;jettySize=auto;html=1;entryX=0.5;entryY=0;entryDx=0;entryDy=0;strokeColor=default;align=center;verticalAlign=middle;fontFamily=Helvetica;fontSize=11;fontColor=default;labelBackgroundColor=default;endArrow=none;" parent="1" source="W_H0yqYWWGtz6BWtwu7v-25" target="eIFraDozomn_EEBno7Bz-63" edge="1">
          <mxGeometry relative="1" as="geometry" />
        </mxCell>
        <mxCell id="W_H0yqYWWGtz6BWtwu7v-25" value="Weight" style="ellipse;whiteSpace=wrap;html=1;fontFamily=Helvetica;fontSize=11;fontColor=default;labelBackgroundColor=default;rotation=-15;" parent="1" vertex="1">
          <mxGeometry x="1550.0023013479492" y="1075.00356400642" width="110" height="40" as="geometry" />
        </mxCell>
        <mxCell id="W_H0yqYWWGtz6BWtwu7v-28" style="edgeStyle=none;rounded=0;orthogonalLoop=1;jettySize=auto;html=1;strokeColor=default;align=center;verticalAlign=middle;fontFamily=Helvetica;fontSize=11;fontColor=default;labelBackgroundColor=default;endArrow=none;" parent="1" source="W_H0yqYWWGtz6BWtwu7v-26" target="eIFraDozomn_EEBno7Bz-63" edge="1">
          <mxGeometry relative="1" as="geometry" />
        </mxCell>
        <mxCell id="W_H0yqYWWGtz6BWtwu7v-26" value="&lt;div&gt;Text&lt;/div&gt;" style="ellipse;whiteSpace=wrap;html=1;fontFamily=Helvetica;fontSize=11;fontColor=default;labelBackgroundColor=default;rotation=-15;" parent="1" vertex="1">
          <mxGeometry x="1570.0023013479492" y="1115.01356400642" width="110" height="40" as="geometry" />
        </mxCell>
        <mxCell id="W_H0yqYWWGtz6BWtwu7v-32" style="edgeStyle=none;rounded=0;orthogonalLoop=1;jettySize=auto;html=1;entryX=-0.031;entryY=0.055;entryDx=0;entryDy=0;entryPerimeter=0;strokeColor=default;align=center;verticalAlign=middle;fontFamily=Helvetica;fontSize=11;fontColor=default;labelBackgroundColor=default;endArrow=none;" parent="1" source="W_H0yqYWWGtz6BWtwu7v-23" target="eIFraDozomn_EEBno7Bz-63" edge="1">
          <mxGeometry relative="1" as="geometry" />
        </mxCell>
        <mxCell id="W_H0yqYWWGtz6BWtwu7v-35" style="edgeStyle=none;rounded=0;orthogonalLoop=1;jettySize=auto;html=1;strokeColor=default;align=center;verticalAlign=middle;fontFamily=Helvetica;fontSize=11;fontColor=default;labelBackgroundColor=default;endArrow=none;" parent="1" source="W_H0yqYWWGtz6BWtwu7v-33" target="eIFraDozomn_EEBno7Bz-63" edge="1">
          <mxGeometry relative="1" as="geometry" />
        </mxCell>
        <mxCell id="W_H0yqYWWGtz6BWtwu7v-33" value="Duration" style="ellipse;whiteSpace=wrap;html=1;fontFamily=Helvetica;fontSize=11;fontColor=default;labelBackgroundColor=default;rotation=-15;" parent="1" vertex="1">
          <mxGeometry x="1600.0023013479492" y="1210.00356400642" width="110" height="40" as="geometry" />
        </mxCell>
        <mxCell id="W_H0yqYWWGtz6BWtwu7v-37" style="edgeStyle=none;rounded=0;orthogonalLoop=1;jettySize=auto;html=1;strokeColor=default;align=center;verticalAlign=middle;fontFamily=Helvetica;fontSize=11;fontColor=default;labelBackgroundColor=default;endArrow=none;" parent="1" source="W_H0yqYWWGtz6BWtwu7v-36" target="eIFraDozomn_EEBno7Bz-63" edge="1">
          <mxGeometry relative="1" as="geometry" />
        </mxCell>
        <mxCell id="W_H0yqYWWGtz6BWtwu7v-36" value="Date" style="ellipse;whiteSpace=wrap;html=1;fontFamily=Helvetica;fontSize=11;fontColor=default;labelBackgroundColor=default;rotation=-15;" parent="1" vertex="1">
          <mxGeometry x="1600.0023013479492" y="1165.00356400642" width="110" height="40" as="geometry" />
        </mxCell>
        <mxCell id="W_H0yqYWWGtz6BWtwu7v-44" value="" style="edgeStyle=none;rounded=0;orthogonalLoop=1;jettySize=auto;html=1;strokeColor=default;align=center;verticalAlign=middle;fontFamily=Helvetica;fontSize=11;fontColor=default;labelBackgroundColor=default;endArrow=none;" parent="1" source="W_H0yqYWWGtz6BWtwu7v-38" target="eIFraDozomn_EEBno7Bz-62" edge="1">
          <mxGeometry relative="1" as="geometry" />
        </mxCell>
        <mxCell id="W_H0yqYWWGtz6BWtwu7v-38" value="&lt;div&gt;ID&lt;/div&gt;" style="ellipse;whiteSpace=wrap;html=1;fontFamily=Helvetica;fontSize=11;fontColor=default;labelBackgroundColor=default;rotation=-15;" parent="1" vertex="1">
          <mxGeometry x="1600.0023013479492" y="1310.00356400642" width="110" height="40" as="geometry" />
        </mxCell>
        <mxCell id="W_H0yqYWWGtz6BWtwu7v-45" style="edgeStyle=none;rounded=0;orthogonalLoop=1;jettySize=auto;html=1;exitX=0;exitY=0.5;exitDx=0;exitDy=0;strokeColor=default;align=center;verticalAlign=middle;fontFamily=Helvetica;fontSize=11;fontColor=default;labelBackgroundColor=default;endArrow=none;" parent="1" source="W_H0yqYWWGtz6BWtwu7v-39" target="eIFraDozomn_EEBno7Bz-62" edge="1">
          <mxGeometry relative="1" as="geometry" />
        </mxCell>
        <mxCell id="W_H0yqYWWGtz6BWtwu7v-39" value="DueDate" style="ellipse;whiteSpace=wrap;html=1;fontFamily=Helvetica;fontSize=11;fontColor=default;labelBackgroundColor=default;rotation=-15;" parent="1" vertex="1">
          <mxGeometry x="1610.0023013479492" y="1350.00356400642" width="110" height="40" as="geometry" />
        </mxCell>
        <mxCell id="W_H0yqYWWGtz6BWtwu7v-46" value="1..1" style="text;strokeColor=none;align=center;fillColor=none;html=1;verticalAlign=middle;whiteSpace=wrap;rounded=0;fontFamily=Helvetica;fontSize=11;fontColor=default;labelBackgroundColor=default;rotation=-10;" parent="1" vertex="1">
          <mxGeometry x="460" y="1070" width="60" height="30" as="geometry" />
        </mxCell>
        <mxCell id="W_H0yqYWWGtz6BWtwu7v-47" value="1..1" style="text;strokeColor=none;align=center;fillColor=none;html=1;verticalAlign=middle;whiteSpace=wrap;rounded=0;fontFamily=Helvetica;fontSize=11;fontColor=default;labelBackgroundColor=default;rotation=20;" parent="1" vertex="1">
          <mxGeometry x="470" y="1145" width="60" height="30" as="geometry" />
        </mxCell>
        <mxCell id="W_H0yqYWWGtz6BWtwu7v-49" value="1..N" style="text;strokeColor=none;align=center;fillColor=none;html=1;verticalAlign=middle;whiteSpace=wrap;rounded=0;fontFamily=Helvetica;fontSize=11;fontColor=default;labelBackgroundColor=default;" parent="1" vertex="1">
          <mxGeometry x="710" y="1035" width="60" height="30" as="geometry" />
        </mxCell>
        <mxCell id="W_H0yqYWWGtz6BWtwu7v-50" value="10..N" style="text;strokeColor=none;align=center;fillColor=none;html=1;verticalAlign=middle;whiteSpace=wrap;rounded=0;fontFamily=Helvetica;fontSize=11;fontColor=default;labelBackgroundColor=default;rotation=-20;" parent="1" vertex="1">
          <mxGeometry x="723.3" y="1175" width="60" height="30" as="geometry" />
        </mxCell>
        <mxCell id="W_H0yqYWWGtz6BWtwu7v-51" value="0..M" style="text;strokeColor=none;align=center;fillColor=none;html=1;verticalAlign=middle;whiteSpace=wrap;rounded=0;fontFamily=Helvetica;fontSize=11;fontColor=default;labelBackgroundColor=default;rotation=-35;" parent="1" vertex="1">
          <mxGeometry x="649.3199999999999" y="1170" width="60" height="30" as="geometry" />
        </mxCell>
        <mxCell id="W_H0yqYWWGtz6BWtwu7v-53" value="1..N" style="text;strokeColor=none;align=center;fillColor=none;html=1;verticalAlign=middle;whiteSpace=wrap;rounded=0;fontFamily=Helvetica;fontSize=11;fontColor=default;labelBackgroundColor=default;rotation=37;" parent="1" vertex="1">
          <mxGeometry x="1130" y="1085" width="60" height="30" as="geometry" />
        </mxCell>
        <mxCell id="W_H0yqYWWGtz6BWtwu7v-54" value="N..1" style="text;strokeColor=none;align=center;fillColor=none;html=1;verticalAlign=middle;whiteSpace=wrap;rounded=0;fontFamily=Helvetica;fontSize=11;fontColor=default;labelBackgroundColor=default;rotation=30;" parent="1" vertex="1">
          <mxGeometry x="960.3162906486996" y="985.0039833452709" width="60" height="30" as="geometry" />
        </mxCell>
        <mxCell id="W_H0yqYWWGtz6BWtwu7v-55" value="1..1" style="text;strokeColor=none;align=center;fillColor=none;html=1;verticalAlign=middle;whiteSpace=wrap;rounded=0;fontFamily=Helvetica;fontSize=11;fontColor=default;labelBackgroundColor=default;rotation=-5;" parent="1" vertex="1">
          <mxGeometry x="1395.0062906486996" y="1200.0039833452709" width="60" height="30" as="geometry" />
        </mxCell>
        <mxCell id="W_H0yqYWWGtz6BWtwu7v-56" value="1..1" style="text;strokeColor=none;align=center;fillColor=none;html=1;verticalAlign=middle;whiteSpace=wrap;rounded=0;fontFamily=Helvetica;fontSize=11;fontColor=default;labelBackgroundColor=default;rotation=50;" parent="1" vertex="1">
          <mxGeometry x="1390.0031770839673" y="1259.997592753806" width="60" height="30" as="geometry" />
        </mxCell>
        <mxCell id="W_H0yqYWWGtz6BWtwu7v-58" value="1..N" style="text;strokeColor=none;align=center;fillColor=none;html=1;verticalAlign=middle;whiteSpace=wrap;rounded=0;fontFamily=Helvetica;fontSize=11;fontColor=default;labelBackgroundColor=default;rotation=-35;" parent="1" vertex="1">
          <mxGeometry x="2213.178207873935" y="1644.4945737548662" width="60" height="30" as="geometry" />
        </mxCell>
        <mxCell id="W_H0yqYWWGtz6BWtwu7v-61" value="0..M" style="text;strokeColor=none;align=center;fillColor=none;html=1;verticalAlign=middle;whiteSpace=wrap;rounded=0;fontFamily=Helvetica;fontSize=11;fontColor=default;labelBackgroundColor=default;rotation=35;" parent="1" vertex="1">
          <mxGeometry x="709.3199999999999" y="1075" width="60" height="30" as="geometry" />
        </mxCell>
        <mxCell id="HvazN37zj3aDiqJYOVbY-1" value="0..M" style="text;strokeColor=none;align=center;fillColor=none;html=1;verticalAlign=middle;whiteSpace=wrap;rounded=0;fontFamily=Helvetica;fontSize=11;fontColor=default;labelBackgroundColor=default;rotation=-30;" parent="1" vertex="1">
          <mxGeometry x="670" y="1175" width="60" height="30" as="geometry" />
        </mxCell>
        <mxCell id="HvazN37zj3aDiqJYOVbY-9" value="1..1" style="text;strokeColor=none;align=center;fillColor=none;html=1;verticalAlign=middle;whiteSpace=wrap;rounded=0;fontFamily=Helvetica;fontSize=11;fontColor=default;labelBackgroundColor=default;rotation=15;" parent="1" vertex="1">
          <mxGeometry x="723.3" y="1240" width="60" height="30" as="geometry" />
        </mxCell>
        <mxCell id="HvazN37zj3aDiqJYOVbY-10" value="1..N" style="text;strokeColor=none;align=center;fillColor=none;html=1;verticalAlign=middle;whiteSpace=wrap;rounded=0;fontFamily=Helvetica;fontSize=11;fontColor=default;labelBackgroundColor=default;rotation=15;" parent="1" vertex="1">
          <mxGeometry x="836" y="1265" width="60" height="30" as="geometry" />
        </mxCell>
      </root>
    </mxGraphModel>
  </diagram>
</mxfile>
